<?xml version="1.0" encoding="utf-8" standalone="no"?>
<!DOCTYPE svg PUBLIC "-//W3C//DTD SVG 1.1//EN"
  "http://www.w3.org/Graphics/SVG/1.1/DTD/svg11.dtd">
<svg height="720pt" version="1.1" viewBox="0 0 1440 720" width="1440pt" xmlns="http://www.w3.org/2000/svg" xmlns:xlink="http://www.w3.org/1999/xlink">
 <metadata>
  <rdf:RDF xmlns:cc="http://creativecommons.org/ns#" xmlns:dc="http://purl.org/dc/elements/1.1/" xmlns:rdf="http://www.w3.org/1999/02/22-rdf-syntax-ns#">
   <cc:Work>
    <dc:type rdf:resource="http://purl.org/dc/dcmitype/StillImage"/>
    <dc:date>2024-11-03T15:15:09.168485</dc:date>
    <dc:format>image/svg+xml</dc:format>
    <dc:creator>
     <cc:Agent>
      <dc:title>Matplotlib v3.4.3, https://matplotlib.org/</dc:title>
     </cc:Agent>
    </dc:creator>
   </cc:Work>
  </rdf:RDF>
 </metadata>
 <defs>
  <style type="text/css">*{stroke-linecap:butt;stroke-linejoin:round;}</style>
 </defs>
 <g id="figure_1">
  <g id="patch_1">
   <path d="M 0 720 
L 1440 720 
L 1440 0 
L 0 0 
z
" style="fill:#ffffff;"/>
  </g>
  <g id="axes_1">
   <g id="patch_2">
    <path d="M 452.192733 549.15 
L 1413.820932 549.15 
L 1413.820932 141.35 
L 452.192733 141.35 
z
" style="fill:#ffffff;"/>
   </g>
   <g id="matplotlib.axis_1">
    <g id="xtick_1">
     <g id="text_1">
      <!-- 100 -->
      <g style="fill:#262626;" transform="translate(447.329645 576.24875)scale(0.28 -0.28)">
       <defs>
        <path d="M 2297 0 
L 1697 0 
L 1697 3194 
L 647 3194 
L 647 3641 
Q 1197 3659 1465 3817 
Q 1734 3975 1856 4500 
L 2297 4500 
L 2297 0 
z
" id="HelveticaWorld-Regular-31" transform="scale(0.015625)"/>
        <path d="M 2719 2188 
Q 2719 3091 2480 3542 
Q 2241 3994 1778 3994 
Q 1325 3994 1081 3542 
Q 838 3091 838 2188 
Q 838 1313 1078 848 
Q 1319 384 1778 384 
Q 2241 384 2480 832 
Q 2719 1281 2719 2188 
z
M 3322 2188 
Q 3322 1081 2922 479 
Q 2522 -122 1778 -122 
Q 1006 -122 622 501 
Q 238 1125 238 2188 
Q 238 3278 631 3889 
Q 1025 4500 1778 4500 
Q 2522 4500 2922 3892 
Q 3322 3284 3322 2188 
z
" id="HelveticaWorld-Regular-30" transform="scale(0.015625)"/>
       </defs>
       <use xlink:href="#HelveticaWorld-Regular-31"/>
       <use x="55.615234" xlink:href="#HelveticaWorld-Regular-30"/>
       <use x="111.230469" xlink:href="#HelveticaWorld-Regular-30"/>
      </g>
     </g>
    </g>
    <g id="xtick_2">
     <g id="text_2">
      <!-- 500 -->
      <g style="fill:#262626;" transform="translate(510.017273 576.24875)scale(0.28 -0.28)">
       <defs>
        <path d="M 941 2619 
Q 1313 2900 1813 2900 
Q 2419 2900 2855 2497 
Q 3291 2094 3291 1459 
Q 3291 769 2870 320 
Q 2450 -128 1691 -128 
Q 1031 -128 650 195 
Q 269 519 206 1113 
L 788 1113 
Q 831 750 1072 558 
Q 1313 366 1741 366 
Q 2156 366 2422 653 
Q 2688 941 2688 1388 
Q 2688 1844 2409 2119 
Q 2131 2394 1691 2394 
Q 1191 2394 856 1966 
L 372 1991 
L 709 4397 
L 3041 4397 
L 3041 3853 
L 1131 3853 
L 941 2619 
z
" id="HelveticaWorld-Regular-35" transform="scale(0.015625)"/>
       </defs>
       <use xlink:href="#HelveticaWorld-Regular-35"/>
       <use x="55.615234" xlink:href="#HelveticaWorld-Regular-30"/>
       <use x="111.230469" xlink:href="#HelveticaWorld-Regular-30"/>
      </g>
     </g>
    </g>
    <g id="xtick_3">
     <g id="text_3">
      <!-- 1000 -->
      <g style="fill:#262626;" transform="translate(580.591494 576.24875)scale(0.28 -0.28)">
       <use xlink:href="#HelveticaWorld-Regular-31"/>
       <use x="55.615234" xlink:href="#HelveticaWorld-Regular-30"/>
       <use x="111.230469" xlink:href="#HelveticaWorld-Regular-30"/>
       <use x="166.845703" xlink:href="#HelveticaWorld-Regular-30"/>
      </g>
     </g>
    </g>
    <g id="xtick_4">
     <g id="text_4">
      <!-- 2000 -->
      <g style="fill:#262626;" transform="translate(737.310561 576.24875)scale(0.28 -0.28)">
       <defs>
        <path d="M 281 2888 
Q 281 3681 690 4090 
Q 1100 4500 1838 4500 
Q 2456 4500 2850 4125 
Q 3244 3750 3244 3156 
Q 3244 2694 3017 2376 
Q 2791 2059 2350 1819 
L 1575 1394 
Q 891 1019 800 531 
L 3244 531 
L 3244 0 
L 166 0 
Q 191 634 441 1056 
Q 691 1478 1222 1784 
L 2028 2253 
Q 2350 2438 2497 2636 
Q 2644 2834 2644 3181 
Q 2644 3525 2403 3759 
Q 2163 3994 1753 3994 
Q 1300 3994 1075 3695 
Q 850 3397 844 2888 
L 281 2888 
z
" id="HelveticaWorld-Regular-32" transform="scale(0.015625)"/>
       </defs>
       <use xlink:href="#HelveticaWorld-Regular-32"/>
       <use x="55.615234" xlink:href="#HelveticaWorld-Regular-30"/>
       <use x="111.230469" xlink:href="#HelveticaWorld-Regular-30"/>
       <use x="166.845703" xlink:href="#HelveticaWorld-Regular-30"/>
      </g>
     </g>
    </g>
    <g id="xtick_5">
     <g id="text_5">
      <!-- 3000 -->
      <g style="fill:#262626;" transform="translate(894.029629 576.24875)scale(0.28 -0.28)">
       <defs>
        <path d="M 1434 2559 
Q 1575 2547 1728 2547 
Q 2125 2547 2354 2730 
Q 2584 2913 2584 3284 
Q 2584 3584 2370 3789 
Q 2156 3994 1753 3994 
Q 1306 3994 1098 3731 
Q 891 3469 878 3028 
L 325 3028 
Q 325 3731 694 4115 
Q 1063 4500 1778 4500 
Q 2413 4500 2791 4173 
Q 3169 3847 3169 3316 
Q 3169 2631 2591 2388 
L 2591 2375 
Q 3341 2119 3341 1325 
Q 3341 691 2919 284 
Q 2497 -122 1722 -122 
Q 1088 -122 678 211 
Q 269 544 219 1375 
L 800 1375 
Q 813 856 1056 620 
Q 1300 384 1759 384 
Q 2203 384 2472 631 
Q 2741 878 2741 1253 
Q 2741 1663 2484 1872 
Q 2228 2081 1691 2081 
Q 1563 2081 1434 2075 
L 1434 2559 
z
" id="HelveticaWorld-Regular-33" transform="scale(0.015625)"/>
       </defs>
       <use xlink:href="#HelveticaWorld-Regular-33"/>
       <use x="55.615234" xlink:href="#HelveticaWorld-Regular-30"/>
       <use x="111.230469" xlink:href="#HelveticaWorld-Regular-30"/>
       <use x="166.845703" xlink:href="#HelveticaWorld-Regular-30"/>
      </g>
     </g>
    </g>
    <g id="xtick_6">
     <g id="text_6">
      <!-- 4000 -->
      <g style="fill:#262626;" transform="translate(1050.748697 576.24875)scale(0.28 -0.28)">
       <defs>
        <path d="M 678 1581 
L 2125 1581 
L 2125 3622 
L 2113 3622 
L 678 1581 
z
M 2688 1094 
L 2688 0 
L 2125 0 
L 2125 1094 
L 159 1094 
L 159 1644 
L 2222 4500 
L 2688 4500 
L 2688 1581 
L 3347 1581 
L 3347 1094 
L 2688 1094 
z
" id="HelveticaWorld-Regular-34" transform="scale(0.015625)"/>
       </defs>
       <use xlink:href="#HelveticaWorld-Regular-34"/>
       <use x="55.615234" xlink:href="#HelveticaWorld-Regular-30"/>
       <use x="111.230469" xlink:href="#HelveticaWorld-Regular-30"/>
       <use x="166.845703" xlink:href="#HelveticaWorld-Regular-30"/>
      </g>
     </g>
    </g>
    <g id="xtick_7">
     <g id="text_7">
      <!-- 5000 -->
      <g style="fill:#262626;" transform="translate(1207.467764 576.24875)scale(0.28 -0.28)">
       <use xlink:href="#HelveticaWorld-Regular-35"/>
       <use x="55.615234" xlink:href="#HelveticaWorld-Regular-30"/>
       <use x="111.230469" xlink:href="#HelveticaWorld-Regular-30"/>
       <use x="166.845703" xlink:href="#HelveticaWorld-Regular-30"/>
      </g>
     </g>
    </g>
    <g id="xtick_8">
     <g id="text_8">
      <!-- 6000 -->
      <g style="fill:#262626;" transform="translate(1364.186832 576.24875)scale(0.28 -0.28)">
       <defs>
        <path d="M 903 1381 
Q 903 941 1165 662 
Q 1428 384 1850 384 
Q 2253 384 2492 668 
Q 2731 953 2731 1416 
Q 2731 1819 2495 2091 
Q 2259 2363 1825 2363 
Q 1403 2363 1153 2097 
Q 903 1831 903 1381 
z
M 2669 3303 
Q 2606 3647 2414 3820 
Q 2222 3994 1894 3994 
Q 1375 3994 1103 3487 
Q 831 2981 825 2328 
L 838 2316 
Q 1197 2869 1906 2869 
Q 2472 2869 2894 2494 
Q 3316 2119 3316 1441 
Q 3316 769 2916 323 
Q 2516 -122 1838 -122 
Q 1056 -122 650 434 
Q 244 991 244 2094 
Q 244 3156 659 3828 
Q 1075 4500 1906 4500 
Q 2444 4500 2816 4179 
Q 3188 3859 3219 3303 
L 2669 3303 
z
" id="HelveticaWorld-Regular-36" transform="scale(0.015625)"/>
       </defs>
       <use xlink:href="#HelveticaWorld-Regular-36"/>
       <use x="55.615234" xlink:href="#HelveticaWorld-Regular-30"/>
       <use x="111.230469" xlink:href="#HelveticaWorld-Regular-30"/>
       <use x="166.845703" xlink:href="#HelveticaWorld-Regular-30"/>
      </g>
     </g>
    </g>
    <g id="text_9">
     <!-- Number of Voxels -->
     <g style="fill:#262626;" transform="translate(810.149332 609.015625)scale(0.32 -0.32)">
      <defs>
       <path d="M 3559 4594 
L 4159 4594 
L 4159 0 
L 3469 0 
L 1125 3713 
L 1113 3713 
L 1113 0 
L 519 0 
L 519 4594 
L 1247 4594 
L 3547 884 
L 3559 884 
L 3559 4594 
z
" id="HelveticaWorld-Regular-4e" transform="scale(0.015625)"/>
       <path d="M 391 3347 
L 953 3347 
L 953 1125 
Q 953 756 1120 573 
Q 1288 391 1600 391 
Q 2034 391 2278 698 
Q 2522 1006 2522 1503 
L 2522 3347 
L 3084 3347 
L 3084 0 
L 2553 0 
L 2553 488 
L 2541 500 
Q 2222 -97 1478 -97 
Q 997 -97 694 165 
Q 391 428 391 941 
L 391 3347 
z
" id="HelveticaWorld-Regular-75" transform="scale(0.015625)"/>
       <path d="M 422 3347 
L 953 3347 
L 953 2875 
L 966 2875 
Q 1344 3444 1978 3444 
Q 2606 3444 2869 2900 
Q 3109 3194 3334 3319 
Q 3559 3444 3891 3444 
Q 4325 3444 4626 3159 
Q 4928 2875 4928 2316 
L 4928 0 
L 4366 0 
L 4366 2163 
Q 4366 2553 4219 2745 
Q 4072 2938 3744 2938 
Q 3413 2938 3184 2669 
Q 2956 2400 2956 2041 
L 2956 0 
L 2394 0 
L 2394 2316 
Q 2394 2606 2259 2772 
Q 2125 2938 1869 2938 
Q 1466 2938 1225 2638 
Q 984 2338 984 1825 
L 984 0 
L 422 0 
L 422 3347 
z
" id="HelveticaWorld-Regular-6d" transform="scale(0.015625)"/>
       <path d="M 2778 1684 
Q 2778 2356 2540 2647 
Q 2303 2938 1863 2938 
Q 1416 2931 1187 2589 
Q 959 2247 959 1600 
Q 959 941 1234 666 
Q 1509 391 1875 391 
Q 2291 391 2534 733 
Q 2778 1075 2778 1684 
z
M 422 0 
L 422 4594 
L 984 4594 
L 984 2925 
L 997 2925 
Q 1356 3444 1966 3444 
Q 2591 3444 2975 2980 
Q 3359 2516 3359 1772 
Q 3359 934 2971 418 
Q 2584 -97 1888 -97 
Q 1275 -97 966 416 
L 953 416 
L 953 0 
L 422 0 
z
" id="HelveticaWorld-Regular-62" transform="scale(0.015625)"/>
       <path d="M 2719 1941 
Q 2675 2484 2431 2711 
Q 2188 2938 1784 2938 
Q 1375 2938 1123 2650 
Q 872 2363 856 1941 
L 2719 1941 
z
M 3256 1050 
Q 3163 531 2747 191 
Q 2381 -97 1784 -103 
Q 1081 -97 668 358 
Q 256 813 256 1581 
Q 256 2463 681 2953 
Q 1106 3444 1863 3444 
Q 2541 3444 2922 2937 
Q 3303 2431 3303 1491 
L 856 1491 
Q 856 966 1100 678 
Q 1344 391 1831 391 
Q 2175 391 2422 598 
Q 2669 806 2694 1050 
L 3256 1050 
z
" id="HelveticaWorld-Regular-65" transform="scale(0.015625)"/>
       <path d="M 984 0 
L 422 0 
L 422 3347 
L 953 3347 
L 953 2791 
L 966 2791 
Q 1331 3444 1906 3444 
Q 1997 3444 2053 3425 
L 2053 2841 
L 1844 2841 
Q 1466 2841 1225 2584 
Q 984 2328 984 1947 
L 984 0 
z
" id="HelveticaWorld-Regular-72" transform="scale(0.015625)"/>
       <path id="HelveticaWorld-Regular-20" transform="scale(0.015625)"/>
       <path d="M 813 1678 
Q 813 1119 1066 758 
Q 1319 397 1784 397 
Q 2266 397 2516 775 
Q 2766 1153 2766 1678 
Q 2766 2209 2516 2579 
Q 2266 2950 1784 2950 
Q 1338 2950 1075 2601 
Q 813 2253 813 1678 
z
M 238 1678 
Q 238 2425 653 2934 
Q 1069 3444 1784 3444 
Q 2516 3444 2928 2928 
Q 3341 2413 3341 1678 
Q 3341 941 2931 422 
Q 2522 -97 1784 -97 
Q 1075 -97 656 406 
Q 238 909 238 1678 
z
" id="HelveticaWorld-Regular-6f" transform="scale(0.015625)"/>
       <path d="M 1100 2881 
L 1100 0 
L 538 0 
L 538 2881 
L 78 2881 
L 78 3347 
L 538 3347 
L 538 3922 
Q 538 4300 767 4479 
Q 997 4659 1409 4659 
Q 1550 4659 1663 4647 
L 1663 4141 
Q 1563 4153 1434 4153 
Q 1247 4153 1173 4061 
Q 1100 3969 1100 3763 
L 1100 3347 
L 1663 3347 
L 1663 2881 
L 1100 2881 
z
" id="HelveticaWorld-Regular-66" transform="scale(0.015625)"/>
       <path d="M 3413 4594 
L 4109 4594 
L 2425 0 
L 1772 0 
L 97 4594 
L 788 4594 
L 2100 678 
L 2113 678 
L 3413 4594 
z
" id="HelveticaWorld-Regular-56" transform="scale(0.015625)"/>
       <path d="M 3138 0 
L 2413 0 
L 1588 1259 
L 781 0 
L 72 0 
L 1241 1722 
L 128 3347 
L 844 3347 
L 1619 2169 
L 2400 3347 
L 3084 3347 
L 1959 1722 
L 3138 0 
z
" id="HelveticaWorld-Regular-78" transform="scale(0.015625)"/>
       <path d="M 984 0 
L 422 0 
L 422 4594 
L 984 4594 
L 984 0 
z
" id="HelveticaWorld-Regular-6c" transform="scale(0.015625)"/>
       <path d="M 2309 2394 
Q 2297 2694 2095 2825 
Q 1894 2956 1516 2956 
Q 1241 2956 1045 2834 
Q 850 2713 850 2484 
Q 850 2303 965 2217 
Q 1081 2131 1466 2034 
L 2022 1894 
Q 2528 1766 2745 1567 
Q 2963 1369 2963 1013 
Q 2963 519 2602 211 
Q 2241 -97 1638 -97 
Q 934 -97 573 195 
Q 213 488 206 1075 
L 750 1075 
Q 763 728 980 559 
Q 1197 391 1631 391 
Q 1984 391 2192 531 
Q 2400 672 2400 922 
Q 2400 1100 2265 1206 
Q 2131 1313 1734 1403 
L 1081 1563 
Q 684 1663 495 1861 
Q 306 2059 306 2375 
Q 306 2869 659 3156 
Q 1013 3444 1581 3444 
Q 2188 3444 2511 3148 
Q 2834 2853 2853 2394 
L 2309 2394 
z
" id="HelveticaWorld-Regular-73" transform="scale(0.015625)"/>
      </defs>
      <use xlink:href="#HelveticaWorld-Regular-4e"/>
      <use x="73.095703" xlink:href="#HelveticaWorld-Regular-75"/>
      <use x="127.880859" xlink:href="#HelveticaWorld-Regular-6d"/>
      <use x="210.888672" xlink:href="#HelveticaWorld-Regular-62"/>
      <use x="267.382812" xlink:href="#HelveticaWorld-Regular-65"/>
      <use x="322.802734" xlink:href="#HelveticaWorld-Regular-72"/>
      <use x="355.371094" xlink:href="#HelveticaWorld-Regular-20"/>
      <use x="379.785156" xlink:href="#HelveticaWorld-Regular-6f"/>
      <use x="435.693359" xlink:href="#HelveticaWorld-Regular-66"/>
      <use x="463.378906" xlink:href="#HelveticaWorld-Regular-20"/>
      <use x="482.792969" xlink:href="#HelveticaWorld-Regular-56"/>
      <use x="540.619141" xlink:href="#HelveticaWorld-Regular-6f"/>
      <use x="593.652344" xlink:href="#HelveticaWorld-Regular-78"/>
      <use x="640.402344" xlink:href="#HelveticaWorld-Regular-65"/>
      <use x="695.822266" xlink:href="#HelveticaWorld-Regular-6c"/>
      <use x="717.84375" xlink:href="#HelveticaWorld-Regular-73"/>
     </g>
    </g>
   </g>
   <g id="matplotlib.axis_2">
    <g id="ytick_1">
     <g id="text_10">
      <!-- 0.45 -->
      <g style="fill:#262626;" transform="translate(390.702108 559.199375)scale(0.28 -0.28)">
       <defs>
        <path d="M 1222 0 
L 556 0 
L 556 678 
L 1222 678 
L 1222 0 
z
" id="HelveticaWorld-Regular-2e" transform="scale(0.015625)"/>
       </defs>
       <use xlink:href="#HelveticaWorld-Regular-30"/>
       <use x="55.615234" xlink:href="#HelveticaWorld-Regular-2e"/>
       <use x="83.398438" xlink:href="#HelveticaWorld-Regular-34"/>
       <use x="139.013672" xlink:href="#HelveticaWorld-Regular-35"/>
      </g>
     </g>
    </g>
    <g id="ytick_2">
     <g id="text_11">
      <!-- 0.50 -->
      <g style="fill:#262626;" transform="translate(390.702108 423.266042)scale(0.28 -0.28)">
       <use xlink:href="#HelveticaWorld-Regular-30"/>
       <use x="55.615234" xlink:href="#HelveticaWorld-Regular-2e"/>
       <use x="83.398438" xlink:href="#HelveticaWorld-Regular-35"/>
       <use x="139.013672" xlink:href="#HelveticaWorld-Regular-30"/>
      </g>
     </g>
    </g>
    <g id="ytick_3">
     <g id="text_12">
      <!-- 0.55 -->
      <g style="fill:#262626;" transform="translate(390.702108 287.332708)scale(0.28 -0.28)">
       <use xlink:href="#HelveticaWorld-Regular-30"/>
       <use x="55.615234" xlink:href="#HelveticaWorld-Regular-2e"/>
       <use x="83.398438" xlink:href="#HelveticaWorld-Regular-35"/>
       <use x="139.013672" xlink:href="#HelveticaWorld-Regular-35"/>
      </g>
     </g>
    </g>
    <g id="ytick_4">
     <g id="text_13">
      <!-- 0.60 -->
      <g style="fill:#262626;" transform="translate(390.702108 151.399375)scale(0.28 -0.28)">
       <use xlink:href="#HelveticaWorld-Regular-30"/>
       <use x="55.615234" xlink:href="#HelveticaWorld-Regular-2e"/>
       <use x="83.398438" xlink:href="#HelveticaWorld-Regular-36"/>
       <use x="139.013672" xlink:href="#HelveticaWorld-Regular-30"/>
      </g>
     </g>
    </g>
    <g id="text_14">
     <!-- Decoding Accuracy (a.u.) -->
     <g style="fill:#262626;" transform="translate(379.657108 523.7775)rotate(-90)scale(0.32 -0.32)">
      <defs>
       <path d="M 1141 531 
L 2344 531 
Q 2969 531 3322 1011 
Q 3675 1491 3675 2322 
Q 3675 3144 3319 3600 
Q 2963 4056 2291 4063 
L 1141 4063 
L 1141 531 
z
M 519 4594 
L 2381 4594 
Q 3284 4594 3795 3973 
Q 4306 3353 4306 2363 
Q 4306 1300 3795 650 
Q 3284 0 2356 0 
L 519 0 
L 519 4594 
z
" id="HelveticaWorld-Regular-44" transform="scale(0.015625)"/>
       <path d="M 2534 2222 
Q 2413 2938 1741 2938 
Q 1325 2938 1072 2605 
Q 819 2272 819 1678 
Q 819 1031 1053 711 
Q 1288 391 1734 391 
Q 2034 391 2253 611 
Q 2472 831 2534 1184 
L 3078 1184 
Q 2994 563 2639 233 
Q 2284 -97 1722 -97 
Q 1063 -97 641 354 
Q 219 806 219 1581 
Q 219 2431 641 2937 
Q 1063 3444 1825 3444 
Q 2381 3444 2711 3111 
Q 3041 2778 3078 2222 
L 2534 2222 
z
" id="HelveticaWorld-Regular-63" transform="scale(0.015625)"/>
       <path d="M 838 1684 
Q 838 1063 1084 727 
Q 1331 391 1741 391 
Q 2131 391 2393 678 
Q 2656 966 2656 1516 
Q 2656 2222 2432 2580 
Q 2209 2938 1753 2938 
Q 1319 2938 1078 2653 
Q 838 2369 838 1684 
z
M 3225 0 
L 2694 0 
L 2694 459 
L 2681 459 
Q 2363 -97 1716 -97 
Q 1019 -97 637 434 
Q 256 966 256 1772 
Q 256 2516 634 2980 
Q 1013 3444 1650 3444 
Q 2278 3444 2650 2875 
L 2663 2913 
L 2663 4594 
L 3225 4594 
L 3225 0 
z
" id="HelveticaWorld-Regular-64" transform="scale(0.015625)"/>
       <path d="M 422 3956 
L 422 4594 
L 984 4594 
L 984 3956 
L 422 3956 
z
M 984 0 
L 422 0 
L 422 3347 
L 984 3347 
L 984 0 
z
" id="HelveticaWorld-Regular-69" transform="scale(0.015625)"/>
       <path d="M 3150 0 
L 2584 0 
L 2584 2059 
Q 2584 2534 2418 2736 
Q 2253 2938 1869 2938 
Q 1491 2938 1237 2650 
Q 984 2363 984 1825 
L 984 0 
L 422 0 
L 422 3347 
L 953 3347 
L 953 2875 
L 966 2875 
Q 1363 3444 1978 3444 
Q 2547 3444 2848 3142 
Q 3150 2841 3150 2278 
L 3150 0 
z
" id="HelveticaWorld-Regular-6e" transform="scale(0.015625)"/>
       <path d="M 831 1684 
Q 831 1069 1075 730 
Q 1319 391 1734 391 
Q 2138 391 2394 684 
Q 2650 978 2650 1516 
Q 2650 2222 2426 2580 
Q 2203 2938 1747 2938 
Q 1288 2938 1059 2633 
Q 831 2328 831 1684 
z
M 3188 191 
Q 3188 -616 2800 -1012 
Q 2413 -1409 1631 -1409 
Q 1069 -1409 736 -1150 
Q 403 -891 353 -409 
L 916 -409 
Q 959 -653 1142 -797 
Q 1325 -941 1672 -941 
Q 2144 -941 2384 -687 
Q 2625 -434 2625 134 
L 2625 372 
L 2613 372 
Q 2297 -97 1722 -97 
Q 1006 -97 628 431 
Q 250 959 250 1772 
Q 250 2516 631 2980 
Q 1013 3444 1644 3444 
Q 2278 3444 2644 2875 
L 2656 2875 
L 2656 3347 
L 3188 3347 
L 3188 191 
z
" id="HelveticaWorld-Regular-67" transform="scale(0.015625)"/>
       <path d="M 2816 1888 
L 2138 3909 
L 2125 3909 
L 1388 1888 
L 2816 1888 
z
M 1197 1338 
L 716 0 
L 78 0 
L 1806 4594 
L 2509 4594 
L 4172 0 
L 3494 0 
L 3041 1338 
L 1197 1338 
z
" id="HelveticaWorld-Regular-41" transform="scale(0.015625)"/>
       <path d="M 2456 1709 
Q 2394 1644 2211 1603 
Q 2028 1563 1528 1497 
Q 1159 1453 986 1315 
Q 813 1178 813 953 
Q 813 678 959 525 
Q 1106 372 1428 372 
Q 1831 372 2143 601 
Q 2456 831 2456 1159 
L 2456 1709 
z
M 397 2328 
Q 416 2894 764 3169 
Q 1113 3444 1778 3444 
Q 2309 3444 2668 3203 
Q 3028 2963 3028 2509 
L 3028 581 
Q 3028 384 3206 384 
Q 3278 384 3391 409 
L 3391 0 
Q 3238 -63 3072 -63 
Q 2784 -63 2643 60 
Q 2503 184 2497 447 
Q 2016 -97 1288 -97 
Q 813 -97 525 172 
Q 238 441 238 872 
Q 238 1313 488 1584 
Q 738 1856 1216 1913 
L 2209 2034 
Q 2478 2075 2478 2431 
Q 2478 2694 2283 2834 
Q 2088 2975 1691 2975 
Q 1338 2975 1148 2819 
Q 959 2663 922 2328 
L 397 2328 
z
" id="HelveticaWorld-Regular-61" transform="scale(0.015625)"/>
       <path d="M 2497 3347 
L 3109 3347 
L 1913 63 
Q 1881 -25 1850 -103 
Q 1578 -828 1381 -1098 
Q 1184 -1369 744 -1369 
Q 513 -1369 366 -1319 
L 366 -806 
Q 525 -863 716 -863 
Q 922 -863 1017 -733 
Q 1113 -603 1300 -97 
L 56 3347 
L 691 3347 
L 1588 622 
L 1600 622 
L 2497 3347 
z
" id="HelveticaWorld-Regular-79" transform="scale(0.015625)"/>
       <path d="M 1906 4691 
Q 1338 3675 1188 3037 
Q 1038 2400 1038 1631 
Q 1038 872 1242 215 
Q 1447 -441 1913 -1325 
L 1538 -1325 
Q 1006 -550 720 140 
Q 434 831 434 1672 
Q 434 2463 693 3180 
Q 953 3897 1516 4691 
L 1906 4691 
z
" id="HelveticaWorld-Regular-28" transform="scale(0.015625)"/>
       <path d="M 225 -1325 
Q 788 -306 938 330 
Q 1088 966 1088 1734 
Q 1088 2497 886 3153 
Q 684 3809 219 4691 
L 588 4691 
Q 1125 3916 1411 3225 
Q 1697 2534 1697 1697 
Q 1697 903 1437 186 
Q 1178 -531 616 -1325 
L 225 -1325 
z
" id="HelveticaWorld-Regular-29" transform="scale(0.015625)"/>
      </defs>
      <use xlink:href="#HelveticaWorld-Regular-44"/>
      <use x="72.021484" xlink:href="#HelveticaWorld-Regular-65"/>
      <use x="127.441406" xlink:href="#HelveticaWorld-Regular-63"/>
      <use x="178.710938" xlink:href="#HelveticaWorld-Regular-6f"/>
      <use x="234.619141" xlink:href="#HelveticaWorld-Regular-64"/>
      <use x="291.601562" xlink:href="#HelveticaWorld-Regular-69"/>
      <use x="313.623047" xlink:href="#HelveticaWorld-Regular-6e"/>
      <use x="368.798828" xlink:href="#HelveticaWorld-Regular-67"/>
      <use x="424.707031" xlink:href="#HelveticaWorld-Regular-20"/>
      <use x="449.121094" xlink:href="#HelveticaWorld-Regular-41"/>
      <use x="514.820312" xlink:href="#HelveticaWorld-Regular-63"/>
      <use x="566.089844" xlink:href="#HelveticaWorld-Regular-63"/>
      <use x="617.359375" xlink:href="#HelveticaWorld-Regular-75"/>
      <use x="672.144531" xlink:href="#HelveticaWorld-Regular-72"/>
      <use x="703.712891" xlink:href="#HelveticaWorld-Regular-61"/>
      <use x="758.644531" xlink:href="#HelveticaWorld-Regular-63"/>
      <use x="809.914062" xlink:href="#HelveticaWorld-Regular-79"/>
      <use x="859.523438" xlink:href="#HelveticaWorld-Regular-20"/>
      <use x="883.9375" xlink:href="#HelveticaWorld-Regular-28"/>
      <use x="917.238281" xlink:href="#HelveticaWorld-Regular-61"/>
      <use x="972.169922" xlink:href="#HelveticaWorld-Regular-2e"/>
      <use x="999.953125" xlink:href="#HelveticaWorld-Regular-75"/>
      <use x="1054.738281" xlink:href="#HelveticaWorld-Regular-2e"/>
      <use x="1082.521484" xlink:href="#HelveticaWorld-Regular-29"/>
     </g>
    </g>
   </g>
   <g id="PolyCollection_1">
    <defs>
     <path d="M 470.685583 -415.42204 
L 470.685583 -273.256414 
L 486.35749 -298.076011 
L 502.029396 -290.278294 
L 517.701303 -310.94182 
L 533.37321 -303.72016 
L 549.045117 -311.140419 
L 564.717024 -306.942454 
L 580.38893 -307.974925 
L 596.060837 -309.379618 
L 611.732744 -319.964162 
L 627.404651 -304.542754 
L 643.076557 -316.610946 
L 658.748464 -323.532895 
L 674.420371 -316.998072 
L 690.092278 -309.749423 
L 705.764184 -303.78824 
L 721.436091 -303.901437 
L 737.107998 -309.921434 
L 752.779905 -290.780229 
L 768.451811 -299.59672 
L 784.123718 -306.25038 
L 799.795625 -309.842881 
L 815.467532 -314.520625 
L 831.139439 -308.667402 
L 846.811345 -313.292374 
L 862.483252 -318.001942 
L 878.155159 -311.91024 
L 893.827066 -309.065808 
L 909.498972 -309.150001 
L 925.170879 -312.025049 
L 940.842786 -322.741723 
L 956.514693 -329.950492 
L 972.186599 -329.784926 
L 987.858506 -323.474484 
L 1003.530413 -324.121037 
L 1019.20232 -327.635387 
L 1034.874226 -331.22668 
L 1050.546133 -332.983855 
L 1066.21804 -338.43988 
L 1081.889947 -337.831999 
L 1097.561853 -341.37777 
L 1113.23376 -331.745937 
L 1128.905667 -335.980963 
L 1144.577574 -328.795558 
L 1160.249481 -331.164643 
L 1175.921387 -331.198481 
L 1191.593294 -332.97177 
L 1207.265201 -330.70984 
L 1222.937108 -338.433837 
L 1238.609014 -346.823725 
L 1254.280921 -337.035187 
L 1269.952828 -342.591116 
L 1285.624735 -341.993305 
L 1301.296641 -341.490162 
L 1316.968548 -343.198594 
L 1332.640455 -343.698515 
L 1348.312362 -349.756378 
L 1363.984268 -344.531179 
L 1379.656175 -347.280542 
L 1395.328082 -342.508534 
L 1395.328082 -433.774087 
L 1395.328082 -433.774087 
L 1379.656175 -432.068475 
L 1363.984268 -430.904276 
L 1348.312362 -439.797709 
L 1332.640455 -426.681335 
L 1316.968548 -426.085136 
L 1301.296641 -423.732568 
L 1285.624735 -427.32386 
L 1269.952828 -429.055254 
L 1254.280921 -421.414644 
L 1238.609014 -434.418626 
L 1222.937108 -428.001029 
L 1207.265201 -418.352679 
L 1191.593294 -423.043314 
L 1175.921387 -423.686645 
L 1160.249481 -423.589964 
L 1144.577574 -423.056205 
L 1128.905667 -425.379769 
L 1113.23376 -427.779469 
L 1097.561853 -427.796791 
L 1081.889947 -432.0153 
L 1066.21804 -434.417015 
L 1050.546133 -421.864613 
L 1034.874226 -427.213886 
L 1019.20232 -429.628894 
L 1003.530413 -433.824039 
L 987.858506 -424.170452 
L 972.186599 -430.681507 
L 956.514693 -429.614392 
L 940.842786 -426.679321 
L 925.170879 -421.754638 
L 909.498972 -420.530013 
L 893.827066 -420.136442 
L 878.155159 -415.930823 
L 862.483252 -417.723448 
L 846.811345 -418.291851 
L 831.139439 -407.555841 
L 815.467532 -426.024711 
L 799.795625 -421.834803 
L 784.123718 -423.102531 
L 768.451811 -419.605502 
L 752.779905 -415.29152 
L 737.107998 -420.771313 
L 721.436091 -420.252056 
L 705.764184 -426.195917 
L 690.092278 -434.970916 
L 674.420371 -442.120468 
L 658.748464 -438.026838 
L 643.076557 -434.26152 
L 627.404651 -418.695896 
L 611.732744 -448.239965 
L 596.060837 -435.476476 
L 580.38893 -436.250326 
L 564.717024 -442.237291 
L 549.045117 -443.342675 
L 533.37321 -439.560438 
L 517.701303 -447.607108 
L 502.029396 -432.247737 
L 486.35749 -428.892508 
L 470.685583 -415.42204 
z
" id="mfa74a1b2ff" style="stroke:#1f77b4;stroke-opacity:0.2;"/>
    </defs>
    <g clip-path="url(#pda2dacf812)">
     <use style="fill:#1f77b4;fill-opacity:0.2;stroke:#1f77b4;stroke-opacity:0.2;" x="0" xlink:href="#mfa74a1b2ff" y="720"/>
    </g>
   </g>
   <g id="PathCollection_1">
    <defs>
     <path d="M 0 -6.708204 
L 0 0 
L -5.809475 -3.354102 
L 0 0 
L -5.809475 3.354102 
L 0 0 
L -0 6.708204 
L 0 0 
L 5.809475 3.354102 
L 0 0 
L 5.809475 -3.354102 
L 0 0 
z
" id="mf1f949d26e" style="stroke:#000000;stroke-width:2;"/>
    </defs>
    <g clip-path="url(#pda2dacf812)">
     <use style="stroke:#000000;stroke-width:2;" x="1050.546133" xlink:href="#mf1f949d26e" y="521.963333"/>
    </g>
   </g>
   <g id="PathCollection_2">
    <g clip-path="url(#pda2dacf812)">
     <use style="stroke:#000000;stroke-width:2;" x="1066.21804" xlink:href="#mf1f949d26e" y="521.963333"/>
    </g>
   </g>
   <g id="PathCollection_3">
    <g clip-path="url(#pda2dacf812)">
     <use style="stroke:#000000;stroke-width:2;" x="1081.889947" xlink:href="#mf1f949d26e" y="521.963333"/>
    </g>
   </g>
   <g id="PathCollection_4">
    <g clip-path="url(#pda2dacf812)">
     <use style="stroke:#000000;stroke-width:2;" x="1097.561853" xlink:href="#mf1f949d26e" y="521.963333"/>
    </g>
   </g>
   <g id="PathCollection_5">
    <g clip-path="url(#pda2dacf812)">
     <use style="stroke:#000000;stroke-width:2;" x="1128.905667" xlink:href="#mf1f949d26e" y="521.963333"/>
    </g>
   </g>
   <g id="PathCollection_6">
    <g clip-path="url(#pda2dacf812)">
     <use style="stroke:#000000;stroke-width:2;" x="1160.249481" xlink:href="#mf1f949d26e" y="521.963333"/>
    </g>
   </g>
   <g id="PathCollection_7">
    <g clip-path="url(#pda2dacf812)">
     <use style="stroke:#000000;stroke-width:2;" x="1175.921387" xlink:href="#mf1f949d26e" y="521.963333"/>
    </g>
   </g>
   <g id="PathCollection_8">
    <g clip-path="url(#pda2dacf812)">
     <use style="stroke:#000000;stroke-width:2;" x="1191.593294" xlink:href="#mf1f949d26e" y="521.963333"/>
    </g>
   </g>
   <g id="PathCollection_9">
    <g clip-path="url(#pda2dacf812)">
     <use style="stroke:#000000;stroke-width:2;" x="1222.937108" xlink:href="#mf1f949d26e" y="521.963333"/>
    </g>
   </g>
   <g id="PathCollection_10">
    <g clip-path="url(#pda2dacf812)">
     <use style="stroke:#000000;stroke-width:2;" x="1238.609014" xlink:href="#mf1f949d26e" y="521.963333"/>
    </g>
   </g>
   <g id="PathCollection_11">
    <g clip-path="url(#pda2dacf812)">
     <use style="stroke:#000000;stroke-width:2;" x="1238.609014" xlink:href="#mf1f949d26e" y="502.932667"/>
    </g>
   </g>
   <g id="PathCollection_12">
    <g clip-path="url(#pda2dacf812)">
     <use style="stroke:#000000;stroke-width:2;" x="1254.280921" xlink:href="#mf1f949d26e" y="521.963333"/>
    </g>
   </g>
   <g id="PathCollection_13">
    <g clip-path="url(#pda2dacf812)">
     <use style="stroke:#000000;stroke-width:2;" x="1269.952828" xlink:href="#mf1f949d26e" y="521.963333"/>
    </g>
   </g>
   <g id="PathCollection_14">
    <g clip-path="url(#pda2dacf812)">
     <use style="stroke:#000000;stroke-width:2;" x="1285.624735" xlink:href="#mf1f949d26e" y="521.963333"/>
    </g>
   </g>
   <g id="PathCollection_15">
    <g clip-path="url(#pda2dacf812)">
     <use style="stroke:#000000;stroke-width:2;" x="1301.296641" xlink:href="#mf1f949d26e" y="521.963333"/>
    </g>
   </g>
   <g id="PathCollection_16">
    <g clip-path="url(#pda2dacf812)">
     <use style="stroke:#000000;stroke-width:2;" x="1301.296641" xlink:href="#mf1f949d26e" y="502.932667"/>
    </g>
   </g>
   <g id="PathCollection_17">
    <g clip-path="url(#pda2dacf812)">
     <use style="stroke:#000000;stroke-width:2;" x="1316.968548" xlink:href="#mf1f949d26e" y="521.963333"/>
    </g>
   </g>
   <g id="PathCollection_18">
    <g clip-path="url(#pda2dacf812)">
     <use style="stroke:#000000;stroke-width:2;" x="1332.640455" xlink:href="#mf1f949d26e" y="521.963333"/>
    </g>
   </g>
   <g id="PathCollection_19">
    <g clip-path="url(#pda2dacf812)">
     <use style="stroke:#000000;stroke-width:2;" x="1348.312362" xlink:href="#mf1f949d26e" y="521.963333"/>
    </g>
   </g>
   <g id="PathCollection_20">
    <g clip-path="url(#pda2dacf812)">
     <use style="stroke:#000000;stroke-width:2;" x="1348.312362" xlink:href="#mf1f949d26e" y="502.932667"/>
    </g>
   </g>
   <g id="PathCollection_21">
    <g clip-path="url(#pda2dacf812)">
     <use style="stroke:#000000;stroke-width:2;" x="1363.984268" xlink:href="#mf1f949d26e" y="521.963333"/>
    </g>
   </g>
   <g id="PathCollection_22">
    <g clip-path="url(#pda2dacf812)">
     <use style="stroke:#000000;stroke-width:2;" x="1363.984268" xlink:href="#mf1f949d26e" y="502.932667"/>
    </g>
   </g>
   <g id="PathCollection_23">
    <g clip-path="url(#pda2dacf812)">
     <use style="stroke:#000000;stroke-width:2;" x="1379.656175" xlink:href="#mf1f949d26e" y="521.963333"/>
    </g>
   </g>
   <g id="PathCollection_24">
    <g clip-path="url(#pda2dacf812)">
     <use style="stroke:#000000;stroke-width:2;" x="1379.656175" xlink:href="#mf1f949d26e" y="502.932667"/>
    </g>
   </g>
   <g id="PathCollection_25">
    <g clip-path="url(#pda2dacf812)">
     <use style="stroke:#000000;stroke-width:2;" x="1395.328082" xlink:href="#mf1f949d26e" y="521.963333"/>
    </g>
   </g>
   <g id="line2d_1">
    <path clip-path="url(#pda2dacf812)" d="M 470.685583 377.944255 
L 486.35749 356.432756 
L 502.029396 359.478205 
L 517.701303 344.621574 
L 533.37321 350.680243 
L 549.045117 344.653801 
L 564.717024 347.119164 
L 580.38893 351.244215 
L 596.060837 348.343789 
L 611.732744 335.871954 
L 627.404651 358.027991 
L 643.076557 343.76756 
L 658.748464 340.254821 
L 674.420371 340.254821 
L 690.092278 348.633831 
L 705.764184 355.820444 
L 721.436091 357.721835 
L 737.107998 357.093409 
L 752.779905 366.616477 
L 768.451811 361.927454 
L 784.123718 357.754062 
L 799.795625 355.949352 
L 815.467532 353.000585 
L 831.139439 359.558772 
L 846.811345 355.965465 
L 862.483252 351.840414 
L 878.155159 359.010914 
L 893.827066 357.19009 
L 909.498972 357.770175 
L 925.170879 354.805295 
L 940.842786 346.490738 
L 956.514693 339.320239 
L 972.186599 341.108835 
L 987.858506 345.29834 
L 1003.530413 342.832978 
L 1019.20232 344.669915 
L 1034.874226 341.705034 
L 1050.546133 341.108835 
L 1066.21804 335.743046 
L 1081.889947 335.710819 
L 1097.561853 336.323131 
L 1113.23376 343.49363 
L 1128.905667 338.740153 
L 1144.577574 344.089829 
L 1160.249481 342.897432 
L 1175.921387 341.044381 
L 1191.593294 341.64058 
L 1207.265201 345.169433 
L 1222.937108 337.402734 
L 1238.609014 333.277683 
L 1254.280921 341.64058 
L 1269.952828 335.646365 
L 1285.624735 336.274791 
L 1301.296641 336.242564 
L 1316.968548 336.274791 
L 1332.640455 336.290904 
L 1348.312362 326.751723 
L 1363.984268 332.697598 
L 1379.656175 330.860661 
L 1395.328082 330.860661 
" style="fill:none;stroke:#1f77b4;stroke-linecap:round;stroke-width:1.5;"/>
    <defs>
     <path d="M 0 5 
C 1.326016 5 2.597899 4.473168 3.535534 3.535534 
C 4.473168 2.597899 5 1.326016 5 0 
C 5 -1.326016 4.473168 -2.597899 3.535534 -3.535534 
C 2.597899 -4.473168 1.326016 -5 0 -5 
C -1.326016 -5 -2.597899 -4.473168 -3.535534 -3.535534 
C -4.473168 -2.597899 -5 -1.326016 -5 0 
C -5 1.326016 -4.473168 2.597899 -3.535534 3.535534 
C -2.597899 4.473168 -1.326016 5 0 5 
z
" id="mfa76a5d02b" style="stroke:#000000;stroke-opacity:0;stroke-width:0.75;"/>
    </defs>
    <g clip-path="url(#pda2dacf812)">
     <use style="fill:#1f77b4;stroke:#000000;stroke-opacity:0;stroke-width:0.75;" x="470.685583" xlink:href="#mfa76a5d02b" y="377.944255"/>
     <use style="fill:#1f77b4;stroke:#000000;stroke-opacity:0;stroke-width:0.75;" x="486.35749" xlink:href="#mfa76a5d02b" y="356.432756"/>
     <use style="fill:#1f77b4;stroke:#000000;stroke-opacity:0;stroke-width:0.75;" x="502.029396" xlink:href="#mfa76a5d02b" y="359.478205"/>
     <use style="fill:#1f77b4;stroke:#000000;stroke-opacity:0;stroke-width:0.75;" x="517.701303" xlink:href="#mfa76a5d02b" y="344.621574"/>
     <use style="fill:#1f77b4;stroke:#000000;stroke-opacity:0;stroke-width:0.75;" x="533.37321" xlink:href="#mfa76a5d02b" y="350.680243"/>
     <use style="fill:#1f77b4;stroke:#000000;stroke-opacity:0;stroke-width:0.75;" x="549.045117" xlink:href="#mfa76a5d02b" y="344.653801"/>
     <use style="fill:#1f77b4;stroke:#000000;stroke-opacity:0;stroke-width:0.75;" x="564.717024" xlink:href="#mfa76a5d02b" y="347.119164"/>
     <use style="fill:#1f77b4;stroke:#000000;stroke-opacity:0;stroke-width:0.75;" x="580.38893" xlink:href="#mfa76a5d02b" y="351.244215"/>
     <use style="fill:#1f77b4;stroke:#000000;stroke-opacity:0;stroke-width:0.75;" x="596.060837" xlink:href="#mfa76a5d02b" y="348.343789"/>
     <use style="fill:#1f77b4;stroke:#000000;stroke-opacity:0;stroke-width:0.75;" x="611.732744" xlink:href="#mfa76a5d02b" y="335.871954"/>
     <use style="fill:#1f77b4;stroke:#000000;stroke-opacity:0;stroke-width:0.75;" x="627.404651" xlink:href="#mfa76a5d02b" y="358.027991"/>
     <use style="fill:#1f77b4;stroke:#000000;stroke-opacity:0;stroke-width:0.75;" x="643.076557" xlink:href="#mfa76a5d02b" y="343.76756"/>
     <use style="fill:#1f77b4;stroke:#000000;stroke-opacity:0;stroke-width:0.75;" x="658.748464" xlink:href="#mfa76a5d02b" y="340.254821"/>
     <use style="fill:#1f77b4;stroke:#000000;stroke-opacity:0;stroke-width:0.75;" x="674.420371" xlink:href="#mfa76a5d02b" y="340.254821"/>
     <use style="fill:#1f77b4;stroke:#000000;stroke-opacity:0;stroke-width:0.75;" x="690.092278" xlink:href="#mfa76a5d02b" y="348.633831"/>
     <use style="fill:#1f77b4;stroke:#000000;stroke-opacity:0;stroke-width:0.75;" x="705.764184" xlink:href="#mfa76a5d02b" y="355.820444"/>
     <use style="fill:#1f77b4;stroke:#000000;stroke-opacity:0;stroke-width:0.75;" x="721.436091" xlink:href="#mfa76a5d02b" y="357.721835"/>
     <use style="fill:#1f77b4;stroke:#000000;stroke-opacity:0;stroke-width:0.75;" x="737.107998" xlink:href="#mfa76a5d02b" y="357.093409"/>
     <use style="fill:#1f77b4;stroke:#000000;stroke-opacity:0;stroke-width:0.75;" x="752.779905" xlink:href="#mfa76a5d02b" y="366.616477"/>
     <use style="fill:#1f77b4;stroke:#000000;stroke-opacity:0;stroke-width:0.75;" x="768.451811" xlink:href="#mfa76a5d02b" y="361.927454"/>
     <use style="fill:#1f77b4;stroke:#000000;stroke-opacity:0;stroke-width:0.75;" x="784.123718" xlink:href="#mfa76a5d02b" y="357.754062"/>
     <use style="fill:#1f77b4;stroke:#000000;stroke-opacity:0;stroke-width:0.75;" x="799.795625" xlink:href="#mfa76a5d02b" y="355.949352"/>
     <use style="fill:#1f77b4;stroke:#000000;stroke-opacity:0;stroke-width:0.75;" x="815.467532" xlink:href="#mfa76a5d02b" y="353.000585"/>
     <use style="fill:#1f77b4;stroke:#000000;stroke-opacity:0;stroke-width:0.75;" x="831.139439" xlink:href="#mfa76a5d02b" y="359.558772"/>
     <use style="fill:#1f77b4;stroke:#000000;stroke-opacity:0;stroke-width:0.75;" x="846.811345" xlink:href="#mfa76a5d02b" y="355.965465"/>
     <use style="fill:#1f77b4;stroke:#000000;stroke-opacity:0;stroke-width:0.75;" x="862.483252" xlink:href="#mfa76a5d02b" y="351.840414"/>
     <use style="fill:#1f77b4;stroke:#000000;stroke-opacity:0;stroke-width:0.75;" x="878.155159" xlink:href="#mfa76a5d02b" y="359.010914"/>
     <use style="fill:#1f77b4;stroke:#000000;stroke-opacity:0;stroke-width:0.75;" x="893.827066" xlink:href="#mfa76a5d02b" y="357.19009"/>
     <use style="fill:#1f77b4;stroke:#000000;stroke-opacity:0;stroke-width:0.75;" x="909.498972" xlink:href="#mfa76a5d02b" y="357.770175"/>
     <use style="fill:#1f77b4;stroke:#000000;stroke-opacity:0;stroke-width:0.75;" x="925.170879" xlink:href="#mfa76a5d02b" y="354.805295"/>
     <use style="fill:#1f77b4;stroke:#000000;stroke-opacity:0;stroke-width:0.75;" x="940.842786" xlink:href="#mfa76a5d02b" y="346.490738"/>
     <use style="fill:#1f77b4;stroke:#000000;stroke-opacity:0;stroke-width:0.75;" x="956.514693" xlink:href="#mfa76a5d02b" y="339.320239"/>
     <use style="fill:#1f77b4;stroke:#000000;stroke-opacity:0;stroke-width:0.75;" x="972.186599" xlink:href="#mfa76a5d02b" y="341.108835"/>
     <use style="fill:#1f77b4;stroke:#000000;stroke-opacity:0;stroke-width:0.75;" x="987.858506" xlink:href="#mfa76a5d02b" y="345.29834"/>
     <use style="fill:#1f77b4;stroke:#000000;stroke-opacity:0;stroke-width:0.75;" x="1003.530413" xlink:href="#mfa76a5d02b" y="342.832978"/>
     <use style="fill:#1f77b4;stroke:#000000;stroke-opacity:0;stroke-width:0.75;" x="1019.20232" xlink:href="#mfa76a5d02b" y="344.669915"/>
     <use style="fill:#1f77b4;stroke:#000000;stroke-opacity:0;stroke-width:0.75;" x="1034.874226" xlink:href="#mfa76a5d02b" y="341.705034"/>
     <use style="fill:#1f77b4;stroke:#000000;stroke-opacity:0;stroke-width:0.75;" x="1050.546133" xlink:href="#mfa76a5d02b" y="341.108835"/>
     <use style="fill:#1f77b4;stroke:#000000;stroke-opacity:0;stroke-width:0.75;" x="1066.21804" xlink:href="#mfa76a5d02b" y="335.743046"/>
     <use style="fill:#1f77b4;stroke:#000000;stroke-opacity:0;stroke-width:0.75;" x="1081.889947" xlink:href="#mfa76a5d02b" y="335.710819"/>
     <use style="fill:#1f77b4;stroke:#000000;stroke-opacity:0;stroke-width:0.75;" x="1097.561853" xlink:href="#mfa76a5d02b" y="336.323131"/>
     <use style="fill:#1f77b4;stroke:#000000;stroke-opacity:0;stroke-width:0.75;" x="1113.23376" xlink:href="#mfa76a5d02b" y="343.49363"/>
     <use style="fill:#1f77b4;stroke:#000000;stroke-opacity:0;stroke-width:0.75;" x="1128.905667" xlink:href="#mfa76a5d02b" y="338.740153"/>
     <use style="fill:#1f77b4;stroke:#000000;stroke-opacity:0;stroke-width:0.75;" x="1144.577574" xlink:href="#mfa76a5d02b" y="344.089829"/>
     <use style="fill:#1f77b4;stroke:#000000;stroke-opacity:0;stroke-width:0.75;" x="1160.249481" xlink:href="#mfa76a5d02b" y="342.897432"/>
     <use style="fill:#1f77b4;stroke:#000000;stroke-opacity:0;stroke-width:0.75;" x="1175.921387" xlink:href="#mfa76a5d02b" y="341.044381"/>
     <use style="fill:#1f77b4;stroke:#000000;stroke-opacity:0;stroke-width:0.75;" x="1191.593294" xlink:href="#mfa76a5d02b" y="341.64058"/>
     <use style="fill:#1f77b4;stroke:#000000;stroke-opacity:0;stroke-width:0.75;" x="1207.265201" xlink:href="#mfa76a5d02b" y="345.169433"/>
     <use style="fill:#1f77b4;stroke:#000000;stroke-opacity:0;stroke-width:0.75;" x="1222.937108" xlink:href="#mfa76a5d02b" y="337.402734"/>
     <use style="fill:#1f77b4;stroke:#000000;stroke-opacity:0;stroke-width:0.75;" x="1238.609014" xlink:href="#mfa76a5d02b" y="333.277683"/>
     <use style="fill:#1f77b4;stroke:#000000;stroke-opacity:0;stroke-width:0.75;" x="1254.280921" xlink:href="#mfa76a5d02b" y="341.64058"/>
     <use style="fill:#1f77b4;stroke:#000000;stroke-opacity:0;stroke-width:0.75;" x="1269.952828" xlink:href="#mfa76a5d02b" y="335.646365"/>
     <use style="fill:#1f77b4;stroke:#000000;stroke-opacity:0;stroke-width:0.75;" x="1285.624735" xlink:href="#mfa76a5d02b" y="336.274791"/>
     <use style="fill:#1f77b4;stroke:#000000;stroke-opacity:0;stroke-width:0.75;" x="1301.296641" xlink:href="#mfa76a5d02b" y="336.242564"/>
     <use style="fill:#1f77b4;stroke:#000000;stroke-opacity:0;stroke-width:0.75;" x="1316.968548" xlink:href="#mfa76a5d02b" y="336.274791"/>
     <use style="fill:#1f77b4;stroke:#000000;stroke-opacity:0;stroke-width:0.75;" x="1332.640455" xlink:href="#mfa76a5d02b" y="336.290904"/>
     <use style="fill:#1f77b4;stroke:#000000;stroke-opacity:0;stroke-width:0.75;" x="1348.312362" xlink:href="#mfa76a5d02b" y="326.751723"/>
     <use style="fill:#1f77b4;stroke:#000000;stroke-opacity:0;stroke-width:0.75;" x="1363.984268" xlink:href="#mfa76a5d02b" y="332.697598"/>
     <use style="fill:#1f77b4;stroke:#000000;stroke-opacity:0;stroke-width:0.75;" x="1379.656175" xlink:href="#mfa76a5d02b" y="330.860661"/>
     <use style="fill:#1f77b4;stroke:#000000;stroke-opacity:0;stroke-width:0.75;" x="1395.328082" xlink:href="#mfa76a5d02b" y="330.860661"/>
    </g>
   </g>
   <g id="line2d_2">
    <path clip-path="url(#pda2dacf812)" d="M 452.192733 413.216667 
L 1413.820932 413.216667 
" style="fill:none;stroke:#000000;stroke-dasharray:7.4,3.2;stroke-dashoffset:0;stroke-width:2;"/>
   </g>
   <g id="patch_3">
    <path d="M 452.192733 549.15 
L 452.192733 141.35 
" style="fill:none;stroke:#262626;stroke-linecap:square;stroke-linejoin:miter;stroke-width:2;"/>
   </g>
   <g id="patch_4">
    <path d="M 452.192733 549.15 
L 1413.820932 549.15 
" style="fill:none;stroke:#262626;stroke-linecap:square;stroke-linejoin:miter;stroke-width:2;"/>
   </g>
  </g>
  <g id="axes_2">
   <g id="patch_5">
    <path d="M 96.3 668.2 
L 346.142733 668.2 
L 346.142733 22.3 
L 96.3 22.3 
z
" style="fill:#ffffff;"/>
   </g>
   <g id="matplotlib.axis_3">
    <g id="xtick_9"/>
    <g id="text_15">
     <!-- Average -->
     <g style="fill:#262626;" transform="translate(163.031366 702.17)scale(0.32 -0.32)">
      <defs>
       <path d="M 2522 3347 
L 3138 3347 
L 1863 0 
L 1259 0 
L 38 3347 
L 691 3347 
L 1563 622 
L 1575 622 
L 2522 3347 
z
" id="HelveticaWorld-Regular-76" transform="scale(0.015625)"/>
      </defs>
      <use xlink:href="#HelveticaWorld-Regular-41"/>
      <use x="62.824219" xlink:href="#HelveticaWorld-Regular-76"/>
      <use x="110.433594" xlink:href="#HelveticaWorld-Regular-65"/>
      <use x="165.853516" xlink:href="#HelveticaWorld-Regular-72"/>
      <use x="197.421875" xlink:href="#HelveticaWorld-Regular-61"/>
      <use x="252.353516" xlink:href="#HelveticaWorld-Regular-67"/>
      <use x="308.261719" xlink:href="#HelveticaWorld-Regular-65"/>
     </g>
    </g>
   </g>
   <g id="matplotlib.axis_4">
    <g id="ytick_5">
     <g id="text_16">
      <!-- 0.1 -->
      <g style="fill:#262626;" transform="translate(44.82 679.685)scale(0.32 -0.32)">
       <use xlink:href="#HelveticaWorld-Regular-30"/>
       <use x="55.615234" xlink:href="#HelveticaWorld-Regular-2e"/>
       <use x="83.398438" xlink:href="#HelveticaWorld-Regular-31"/>
      </g>
     </g>
    </g>
    <g id="ytick_6">
     <g id="text_17">
      <!-- 0.2 -->
      <g style="fill:#262626;" transform="translate(44.82 598.9475)scale(0.32 -0.32)">
       <use xlink:href="#HelveticaWorld-Regular-30"/>
       <use x="55.615234" xlink:href="#HelveticaWorld-Regular-2e"/>
       <use x="83.398438" xlink:href="#HelveticaWorld-Regular-32"/>
      </g>
     </g>
    </g>
    <g id="ytick_7">
     <g id="text_18">
      <!-- 0.3 -->
      <g style="fill:#262626;" transform="translate(44.82 518.21)scale(0.32 -0.32)">
       <use xlink:href="#HelveticaWorld-Regular-30"/>
       <use x="55.615234" xlink:href="#HelveticaWorld-Regular-2e"/>
       <use x="83.398438" xlink:href="#HelveticaWorld-Regular-33"/>
      </g>
     </g>
    </g>
    <g id="ytick_8">
     <g id="text_19">
      <!-- 0.4 -->
      <g style="fill:#262626;" transform="translate(44.82 437.4725)scale(0.32 -0.32)">
       <use xlink:href="#HelveticaWorld-Regular-30"/>
       <use x="55.615234" xlink:href="#HelveticaWorld-Regular-2e"/>
       <use x="83.398438" xlink:href="#HelveticaWorld-Regular-34"/>
      </g>
     </g>
    </g>
    <g id="ytick_9">
     <g id="text_20">
      <!-- 0.5 -->
      <g style="fill:#262626;" transform="translate(44.82 356.735)scale(0.32 -0.32)">
       <use xlink:href="#HelveticaWorld-Regular-30"/>
       <use x="55.615234" xlink:href="#HelveticaWorld-Regular-2e"/>
       <use x="83.398438" xlink:href="#HelveticaWorld-Regular-35"/>
      </g>
     </g>
    </g>
    <g id="ytick_10">
     <g id="text_21">
      <!-- 0.6 -->
      <g style="fill:#262626;" transform="translate(44.82 275.9975)scale(0.32 -0.32)">
       <use xlink:href="#HelveticaWorld-Regular-30"/>
       <use x="55.615234" xlink:href="#HelveticaWorld-Regular-2e"/>
       <use x="83.398438" xlink:href="#HelveticaWorld-Regular-36"/>
      </g>
     </g>
    </g>
    <g id="ytick_11">
     <g id="text_22">
      <!-- 0.7 -->
      <g style="fill:#262626;" transform="translate(44.82 195.26)scale(0.32 -0.32)">
       <defs>
        <path d="M 238 4403 
L 3347 4403 
L 3347 3909 
Q 2706 3256 2175 2143 
Q 1644 1031 1497 0 
L 878 0 
Q 972 850 1500 1954 
Q 2028 3059 2713 3853 
L 238 3853 
L 238 4403 
z
" id="HelveticaWorld-Regular-37" transform="scale(0.015625)"/>
       </defs>
       <use xlink:href="#HelveticaWorld-Regular-30"/>
       <use x="55.615234" xlink:href="#HelveticaWorld-Regular-2e"/>
       <use x="83.398438" xlink:href="#HelveticaWorld-Regular-37"/>
      </g>
     </g>
    </g>
    <g id="ytick_12">
     <g id="text_23">
      <!-- 0.8 -->
      <g style="fill:#262626;" transform="translate(44.82 114.5225)scale(0.32 -0.32)">
       <defs>
        <path d="M 1766 2597 
Q 2113 2597 2339 2795 
Q 2566 2994 2566 3322 
Q 2566 3616 2348 3805 
Q 2131 3994 1728 3994 
Q 1369 3994 1173 3795 
Q 978 3597 978 3291 
Q 978 2963 1222 2780 
Q 1466 2597 1766 2597 
z
M 1772 2113 
Q 1338 2113 1091 1872 
Q 844 1631 844 1281 
Q 844 878 1094 631 
Q 1344 384 1806 384 
Q 2216 384 2461 631 
Q 2706 878 2706 1288 
Q 2706 1638 2461 1875 
Q 2216 2113 1772 2113 
z
M 3150 3341 
Q 3150 2663 2572 2394 
Q 2969 2216 3139 1923 
Q 3309 1631 3309 1300 
Q 3309 659 2896 268 
Q 2484 -122 1784 -122 
Q 1172 -122 708 214 
Q 244 550 244 1306 
Q 244 2069 1006 2388 
Q 397 2631 397 3263 
Q 397 3794 758 4147 
Q 1119 4500 1759 4500 
Q 2400 4500 2775 4167 
Q 3150 3834 3150 3341 
z
" id="HelveticaWorld-Regular-38" transform="scale(0.015625)"/>
       </defs>
       <use xlink:href="#HelveticaWorld-Regular-30"/>
       <use x="55.615234" xlink:href="#HelveticaWorld-Regular-2e"/>
       <use x="83.398438" xlink:href="#HelveticaWorld-Regular-38"/>
      </g>
     </g>
    </g>
    <g id="ytick_13">
     <g id="text_24">
      <!-- 0.9 -->
      <g style="fill:#262626;" transform="translate(44.82 33.785)scale(0.32 -0.32)">
       <defs>
        <path d="M 1766 2009 
Q 2150 2009 2390 2268 
Q 2631 2528 2631 3034 
Q 2631 3450 2403 3722 
Q 2175 3994 1722 3994 
Q 1331 3994 1090 3719 
Q 850 3444 850 2981 
Q 850 2509 1075 2259 
Q 1300 2009 1766 2009 
z
M 1684 1503 
Q 1044 1503 656 1900 
Q 269 2297 269 2956 
Q 269 3622 659 4061 
Q 1050 4500 1716 4500 
Q 2491 4500 2891 3978 
Q 3291 3456 3291 2413 
Q 3291 1331 2881 604 
Q 2472 -122 1656 -122 
Q 1019 -122 669 236 
Q 319 594 319 1081 
L 884 1081 
Q 909 744 1104 545 
Q 1300 347 1644 347 
Q 2131 347 2381 781 
Q 2631 1216 2725 2028 
L 2713 2041 
Q 2350 1503 1684 1503 
z
" id="HelveticaWorld-Regular-39" transform="scale(0.015625)"/>
       </defs>
       <use xlink:href="#HelveticaWorld-Regular-30"/>
       <use x="55.615234" xlink:href="#HelveticaWorld-Regular-2e"/>
       <use x="83.398438" xlink:href="#HelveticaWorld-Regular-39"/>
      </g>
     </g>
    </g>
    <g id="text_25">
     <!-- Decoding Accuracy (a.u.) -->
     <g style="fill:#262626;" transform="translate(33.775 523.7775)rotate(-90)scale(0.32 -0.32)">
      <use xlink:href="#HelveticaWorld-Regular-44"/>
      <use x="72.021484" xlink:href="#HelveticaWorld-Regular-65"/>
      <use x="127.441406" xlink:href="#HelveticaWorld-Regular-63"/>
      <use x="178.710938" xlink:href="#HelveticaWorld-Regular-6f"/>
      <use x="234.619141" xlink:href="#HelveticaWorld-Regular-64"/>
      <use x="291.601562" xlink:href="#HelveticaWorld-Regular-69"/>
      <use x="313.623047" xlink:href="#HelveticaWorld-Regular-6e"/>
      <use x="368.798828" xlink:href="#HelveticaWorld-Regular-67"/>
      <use x="424.707031" xlink:href="#HelveticaWorld-Regular-20"/>
      <use x="449.121094" xlink:href="#HelveticaWorld-Regular-41"/>
      <use x="514.820312" xlink:href="#HelveticaWorld-Regular-63"/>
      <use x="566.089844" xlink:href="#HelveticaWorld-Regular-63"/>
      <use x="617.359375" xlink:href="#HelveticaWorld-Regular-75"/>
      <use x="672.144531" xlink:href="#HelveticaWorld-Regular-72"/>
      <use x="703.712891" xlink:href="#HelveticaWorld-Regular-61"/>
      <use x="758.644531" xlink:href="#HelveticaWorld-Regular-63"/>
      <use x="809.914062" xlink:href="#HelveticaWorld-Regular-79"/>
      <use x="859.523438" xlink:href="#HelveticaWorld-Regular-20"/>
      <use x="883.9375" xlink:href="#HelveticaWorld-Regular-28"/>
      <use x="917.238281" xlink:href="#HelveticaWorld-Regular-61"/>
      <use x="972.169922" xlink:href="#HelveticaWorld-Regular-2e"/>
      <use x="999.953125" xlink:href="#HelveticaWorld-Regular-75"/>
      <use x="1054.738281" xlink:href="#HelveticaWorld-Regular-2e"/>
      <use x="1082.521484" xlink:href="#HelveticaWorld-Regular-29"/>
     </g>
    </g>
   </g>
   <g id="PolyCollection_2">
    <defs>
     <path d="M 197.312971 -293.455746 
L 194.780761 -293.455746 
L 193.921341 -295.799124 
L 192.838888 -298.142502 
L 191.499067 -300.48588 
L 189.869307 -302.829258 
L 187.921079 -305.172636 
L 185.632392 -307.516014 
L 182.990326 -309.859392 
L 179.993408 -312.20277 
L 176.653602 -314.546149 
L 172.997712 -316.889527 
L 169.068012 -319.232905 
L 164.921999 -321.576283 
L 160.631192 -323.919661 
L 156.279029 -326.263039 
L 151.957948 -328.606417 
L 147.765825 -330.949795 
L 143.801992 -333.293173 
L 140.163053 -335.636551 
L 136.938756 -337.979929 
L 134.208112 -340.323307 
L 132.035942 -342.666685 
L 130.469975 -345.010064 
L 129.53855 -347.353442 
L 129.248958 -349.69682 
L 129.586418 -352.040198 
L 130.513672 -354.383576 
L 131.971202 -356.726954 
L 133.878104 -359.070332 
L 136.13366 -361.41371 
L 138.619721 -363.757088 
L 141.203991 -366.100466 
L 143.744288 -368.443844 
L 146.093825 -370.787222 
L 148.107437 -373.1306 
L 149.648568 -375.473978 
L 150.596712 -377.817357 
L 150.854841 -380.160735 
L 150.356288 -382.504113 
L 149.070462 -384.847491 
L 147.006814 -387.190869 
L 144.216541 -389.534247 
L 140.791677 -391.877625 
L 136.861425 -394.221003 
L 132.585856 -396.564381 
L 128.147324 -398.907759 
L 123.740222 -401.251137 
L 119.559844 -403.594515 
L 115.791249 -405.937893 
L 112.599021 -408.281271 
L 110.11872 -410.62465 
L 108.450675 -412.968028 
L 107.656488 -415.311406 
L 107.758374 -417.654784 
L 108.741165 -419.998162 
L 110.556564 -422.34154 
L 113.129048 -424.684918 
L 116.362726 -427.028296 
L 120.148423 -429.371674 
L 124.37035 -431.715052 
L 128.911873 -434.05843 
L 133.660038 -436.401808 
L 138.508763 -438.745186 
L 143.360757 -441.088565 
L 148.128413 -443.431943 
L 152.733984 -445.775321 
L 157.109409 -448.118699 
L 161.196128 -450.462077 
L 164.945119 -452.805455 
L 168.317317 -455.148833 
L 171.284392 -457.492211 
L 173.829796 -459.835589 
L 175.949846 -462.178967 
L 177.654575 -464.522345 
L 178.968065 -466.865723 
L 179.928032 -469.209101 
L 180.584478 -471.552479 
L 180.997386 -473.895858 
L 181.233524 -476.239236 
L 181.362579 -478.582614 
L 181.452927 -480.925992 
L 181.567413 -483.26937 
L 181.759551 -485.612748 
L 182.070505 -487.956126 
L 182.527123 -490.299504 
L 183.141209 -492.642882 
L 183.910045 -494.98626 
L 184.818061 -497.329638 
L 185.839416 -499.673016 
L 186.941175 -502.016394 
L 188.086732 -504.359773 
L 189.239109 -506.703151 
L 190.363858 -509.046529 
L 191.431311 -511.389907 
L 192.418087 -513.733285 
L 193.307815 -516.076663 
L 194.091132 -518.420041 
L 194.765114 -520.763419 
L 195.332274 -523.106797 
L 195.799336 -525.450175 
L 197.312971 -525.450175 
L 197.312971 -525.450175 
L 197.312971 -523.106797 
L 197.312971 -520.763419 
L 197.312971 -518.420041 
L 197.312971 -516.076663 
L 197.312971 -513.733285 
L 197.312971 -511.389907 
L 197.312971 -509.046529 
L 197.312971 -506.703151 
L 197.312971 -504.359773 
L 197.312971 -502.016394 
L 197.312971 -499.673016 
L 197.312971 -497.329638 
L 197.312971 -494.98626 
L 197.312971 -492.642882 
L 197.312971 -490.299504 
L 197.312971 -487.956126 
L 197.312971 -485.612748 
L 197.312971 -483.26937 
L 197.312971 -480.925992 
L 197.312971 -478.582614 
L 197.312971 -476.239236 
L 197.312971 -473.895858 
L 197.312971 -471.552479 
L 197.312971 -469.209101 
L 197.312971 -466.865723 
L 197.312971 -464.522345 
L 197.312971 -462.178967 
L 197.312971 -459.835589 
L 197.312971 -457.492211 
L 197.312971 -455.148833 
L 197.312971 -452.805455 
L 197.312971 -450.462077 
L 197.312971 -448.118699 
L 197.312971 -445.775321 
L 197.312971 -443.431943 
L 197.312971 -441.088565 
L 197.312971 -438.745186 
L 197.312971 -436.401808 
L 197.312971 -434.05843 
L 197.312971 -431.715052 
L 197.312971 -429.371674 
L 197.312971 -427.028296 
L 197.312971 -424.684918 
L 197.312971 -422.34154 
L 197.312971 -419.998162 
L 197.312971 -417.654784 
L 197.312971 -415.311406 
L 197.312971 -412.968028 
L 197.312971 -410.62465 
L 197.312971 -408.281271 
L 197.312971 -405.937893 
L 197.312971 -403.594515 
L 197.312971 -401.251137 
L 197.312971 -398.907759 
L 197.312971 -396.564381 
L 197.312971 -394.221003 
L 197.312971 -391.877625 
L 197.312971 -389.534247 
L 197.312971 -387.190869 
L 197.312971 -384.847491 
L 197.312971 -382.504113 
L 197.312971 -380.160735 
L 197.312971 -377.817357 
L 197.312971 -375.473978 
L 197.312971 -373.1306 
L 197.312971 -370.787222 
L 197.312971 -368.443844 
L 197.312971 -366.100466 
L 197.312971 -363.757088 
L 197.312971 -361.41371 
L 197.312971 -359.070332 
L 197.312971 -356.726954 
L 197.312971 -354.383576 
L 197.312971 -352.040198 
L 197.312971 -349.69682 
L 197.312971 -347.353442 
L 197.312971 -345.010064 
L 197.312971 -342.666685 
L 197.312971 -340.323307 
L 197.312971 -337.979929 
L 197.312971 -335.636551 
L 197.312971 -333.293173 
L 197.312971 -330.949795 
L 197.312971 -328.606417 
L 197.312971 -326.263039 
L 197.312971 -323.919661 
L 197.312971 -321.576283 
L 197.312971 -319.232905 
L 197.312971 -316.889527 
L 197.312971 -314.546149 
L 197.312971 -312.20277 
L 197.312971 -309.859392 
L 197.312971 -307.516014 
L 197.312971 -305.172636 
L 197.312971 -302.829258 
L 197.312971 -300.48588 
L 197.312971 -298.142502 
L 197.312971 -295.799124 
L 197.312971 -293.455746 
z
" id="m0bb584313e" style="stroke:#7a7a7a;stroke-width:1.5;"/>
    </defs>
    <g clip-path="url(#p81e649a3a5)">
     <use style="fill:#cccccc;stroke:#7a7a7a;stroke-width:1.5;" x="0" xlink:href="#m0bb584313e" y="720"/>
    </g>
   </g>
   <g id="PolyCollection_3">
    <defs>
     <path d="M 197.312971 -382.82375 
L 150.356288 -382.82375 
L 140.791677 -391.877625 
L 128.147324 -398.907759 
L 115.791249 -405.937893 
L 107.656488 -415.11875 
L 197.312971 -415.11875 
L 197.312971 -415.11875 
L 197.312971 -405.937893 
L 197.312971 -398.907759 
L 197.312971 -391.877625 
L 197.312971 -382.82375 
z
" id="md1e6e17751" style="stroke:#666666;stroke-width:1.5;"/>
    </defs>
    <g clip-path="url(#p81e649a3a5)">
     <use style="fill:#8f8f8f;stroke:#666666;stroke-width:1.5;" x="0" xlink:href="#md1e6e17751" y="720"/>
    </g>
   </g>
   <g id="PolyCollection_4">
    <defs>
     <path d="M 245.129762 -262.382622 
L 247.012627 -262.382622 
L 247.629359 -265.008571 
L 248.398396 -267.634519 
L 249.340576 -270.260467 
L 250.474598 -272.886416 
L 251.815417 -275.512364 
L 253.372611 -278.138312 
L 255.14885 -280.764261 
L 257.138673 -283.390209 
L 259.327736 -286.016157 
L 261.692709 -288.642105 
L 264.201905 -291.268054 
L 266.816707 -293.894002 
L 269.493699 -296.51995 
L 272.187376 -299.145899 
L 274.853171 -301.771847 
L 277.450495 -304.397795 
L 279.945456 -307.023744 
L 282.312939 -309.649692 
L 284.537804 -312.27564 
L 286.615056 -314.901589 
L 288.548987 -317.527537 
L 290.351445 -320.153485 
L 292.039489 -322.779434 
L 293.632787 -325.405382 
L 295.151178 -328.03133 
L 296.612717 -330.657279 
L 298.032507 -333.283227 
L 299.422414 -335.909175 
L 300.791641 -338.535124 
L 302.147952 -341.161072 
L 303.499223 -343.78702 
L 304.854935 -346.412969 
L 306.227224 -349.038917 
L 307.631187 -351.664865 
L 309.084271 -354.290813 
L 310.604744 -356.916762 
L 312.209421 -359.54271 
L 313.910942 -362.168658 
L 315.715015 -364.794607 
L 317.618021 -367.420555 
L 319.605373 -370.046503 
L 321.65088 -372.672452 
L 323.717253 -375.2984 
L 325.757723 -377.924348 
L 327.718597 -380.550297 
L 329.542487 -383.176245 
L 331.171874 -385.802193 
L 332.552634 -388.428142 
L 333.637236 -391.05409 
L 334.387317 -393.680038 
L 334.775481 -396.305987 
L 334.786245 -398.931935 
L 334.416133 -401.557883 
L 333.673035 -404.183832 
L 332.57499 -406.80978 
L 331.148602 -409.435728 
L 329.427304 -412.061677 
L 327.449687 -414.687625 
L 325.258027 -417.313573 
L 322.897114 -419.939522 
L 320.413364 -422.56547 
L 317.854128 -425.191418 
L 315.267048 -427.817366 
L 312.699257 -430.443315 
L 310.196261 -433.069263 
L 307.800365 -435.695211 
L 305.548659 -438.32116 
L 303.47064 -440.947108 
L 301.585742 -443.573056 
L 299.901078 -446.199005 
L 298.40979 -448.824953 
L 297.090359 -451.450901 
L 295.907142 -454.07685 
L 294.812271 -456.702798 
L 293.748839 -459.328746 
L 292.655166 -461.954695 
L 291.469725 -464.580643 
L 290.136256 -467.206591 
L 288.608518 -469.83254 
L 286.854202 -472.458488 
L 284.857598 -475.084436 
L 282.620781 -477.710385 
L 280.163234 -480.336333 
L 277.520031 -482.962281 
L 274.738798 -485.58823 
L 271.875847 -488.214178 
L 268.991869 -490.840126 
L 266.147628 -493.466074 
L 263.400035 -496.092023 
L 260.798901 -498.717971 
L 258.384576 -501.343919 
L 256.186561 -503.969868 
L 254.223091 -506.595816 
L 252.501565 -509.221764 
L 251.019678 -511.847713 
L 249.767031 -514.473661 
L 248.727024 -517.099609 
L 247.878803 -519.725558 
L 247.199125 -522.351506 
L 245.129762 -522.351506 
L 245.129762 -522.351506 
L 245.129762 -519.725558 
L 245.129762 -517.099609 
L 245.129762 -514.473661 
L 245.129762 -511.847713 
L 245.129762 -509.221764 
L 245.129762 -506.595816 
L 245.129762 -503.969868 
L 245.129762 -501.343919 
L 245.129762 -498.717971 
L 245.129762 -496.092023 
L 245.129762 -493.466074 
L 245.129762 -490.840126 
L 245.129762 -488.214178 
L 245.129762 -485.58823 
L 245.129762 -482.962281 
L 245.129762 -480.336333 
L 245.129762 -477.710385 
L 245.129762 -475.084436 
L 245.129762 -472.458488 
L 245.129762 -469.83254 
L 245.129762 -467.206591 
L 245.129762 -464.580643 
L 245.129762 -461.954695 
L 245.129762 -459.328746 
L 245.129762 -456.702798 
L 245.129762 -454.07685 
L 245.129762 -451.450901 
L 245.129762 -448.824953 
L 245.129762 -446.199005 
L 245.129762 -443.573056 
L 245.129762 -440.947108 
L 245.129762 -438.32116 
L 245.129762 -435.695211 
L 245.129762 -433.069263 
L 245.129762 -430.443315 
L 245.129762 -427.817366 
L 245.129762 -425.191418 
L 245.129762 -422.56547 
L 245.129762 -419.939522 
L 245.129762 -417.313573 
L 245.129762 -414.687625 
L 245.129762 -412.061677 
L 245.129762 -409.435728 
L 245.129762 -406.80978 
L 245.129762 -404.183832 
L 245.129762 -401.557883 
L 245.129762 -398.931935 
L 245.129762 -396.305987 
L 245.129762 -393.680038 
L 245.129762 -391.05409 
L 245.129762 -388.428142 
L 245.129762 -385.802193 
L 245.129762 -383.176245 
L 245.129762 -380.550297 
L 245.129762 -377.924348 
L 245.129762 -375.2984 
L 245.129762 -372.672452 
L 245.129762 -370.046503 
L 245.129762 -367.420555 
L 245.129762 -364.794607 
L 245.129762 -362.168658 
L 245.129762 -359.54271 
L 245.129762 -356.916762 
L 245.129762 -354.290813 
L 245.129762 -351.664865 
L 245.129762 -349.038917 
L 245.129762 -346.412969 
L 245.129762 -343.78702 
L 245.129762 -341.161072 
L 245.129762 -338.535124 
L 245.129762 -335.909175 
L 245.129762 -333.283227 
L 245.129762 -330.657279 
L 245.129762 -328.03133 
L 245.129762 -325.405382 
L 245.129762 -322.779434 
L 245.129762 -320.153485 
L 245.129762 -317.527537 
L 245.129762 -314.901589 
L 245.129762 -312.27564 
L 245.129762 -309.649692 
L 245.129762 -307.023744 
L 245.129762 -304.397795 
L 245.129762 -301.771847 
L 245.129762 -299.145899 
L 245.129762 -296.51995 
L 245.129762 -293.894002 
L 245.129762 -291.268054 
L 245.129762 -288.642105 
L 245.129762 -286.016157 
L 245.129762 -283.390209 
L 245.129762 -280.764261 
L 245.129762 -278.138312 
L 245.129762 -275.512364 
L 245.129762 -272.886416 
L 245.129762 -270.260467 
L 245.129762 -267.634519 
L 245.129762 -265.008571 
L 245.129762 -262.382622 
z
" id="m4755b8d0d1" style="stroke:#7a7a7a;stroke-width:1.5;"/>
    </defs>
    <g clip-path="url(#p81e649a3a5)">
     <use style="fill:#cccccc;stroke:#7a7a7a;stroke-width:1.5;" x="0" xlink:href="#m4755b8d0d1" y="720"/>
    </g>
   </g>
   <g id="PolyCollection_5">
    <defs>
     <path d="M 245.129762 -375.2984 
L 323.717253 -375.2984 
L 329.542487 -383.176245 
L 333.637236 -391.05409 
L 334.786245 -398.931935 
L 332.57499 -406.80978 
L 327.449687 -414.687625 
L 245.129762 -414.687625 
L 245.129762 -414.687625 
L 245.129762 -406.80978 
L 245.129762 -398.931935 
L 245.129762 -391.05409 
L 245.129762 -383.176245 
L 245.129762 -375.2984 
z
" id="m82673dc8bc" style="stroke:#666666;stroke-width:1.5;"/>
    </defs>
    <g clip-path="url(#p81e649a3a5)">
     <use style="fill:#8f8f8f;stroke:#666666;stroke-width:1.5;" x="0" xlink:href="#m82673dc8bc" y="720"/>
    </g>
   </g>
   <g id="PathCollection_26">
    <defs>
     <path d="M 0 3 
C 0.795609 3 1.55874 2.683901 2.12132 2.12132 
C 2.683901 1.55874 3 0.795609 3 0 
C 3 -0.795609 2.683901 -1.55874 2.12132 -2.12132 
C 1.55874 -2.683901 0.795609 -3 0 -3 
C -0.795609 -3 -1.55874 -2.683901 -2.12132 -2.12132 
C -2.683901 -1.55874 -3 -0.795609 -3 0 
C -3 0.795609 -2.683901 1.55874 -2.12132 2.12132 
C -1.55874 2.683901 -0.795609 3 0 3 
z
" id="maf372afc66" style="stroke:#000000;stroke-opacity:0.3;"/>
    </defs>
    <g clip-path="url(#p81e649a3a5)">
     <use style="fill-opacity:0.3;stroke:#000000;stroke-opacity:0.3;" x="197.291183" xlink:href="#maf372afc66" y="310.724095"/>
     <use style="fill-opacity:0.3;stroke:#000000;stroke-opacity:0.3;" x="173.643553" xlink:href="#maf372afc66" y="391.107484"/>
     <use style="fill-opacity:0.3;stroke:#000000;stroke-opacity:0.3;" x="179.240966" xlink:href="#maf372afc66" y="271.417681"/>
     <use style="fill-opacity:0.3;stroke:#000000;stroke-opacity:0.3;" x="130.575373" xlink:href="#maf372afc66" y="318.868668"/>
     <use style="fill-opacity:0.3;stroke:#000000;stroke-opacity:0.3;" x="144.635795" xlink:href="#maf372afc66" y="355.696299"/>
     <use style="fill-opacity:0.3;stroke:#000000;stroke-opacity:0.3;" x="154.336753" xlink:href="#maf372afc66" y="291.779112"/>
     <use style="fill-opacity:0.3;stroke:#000000;stroke-opacity:0.3;" x="194.171521" xlink:href="#maf372afc66" y="229.986595"/>
     <use style="fill-opacity:0.3;stroke:#000000;stroke-opacity:0.3;" x="185.292146" xlink:href="#maf372afc66" y="361.716201"/>
     <use style="fill-opacity:0.3;stroke:#000000;stroke-opacity:0.3;" x="157.517129" xlink:href="#maf372afc66" y="295.061824"/>
     <use style="fill-opacity:0.3;stroke:#000000;stroke-opacity:0.3;" x="116.321437" xlink:href="#maf372afc66" y="310.015872"/>
     <use style="fill-opacity:0.3;stroke:#000000;stroke-opacity:0.3;" x="169.062035" xlink:href="#maf372afc66" y="352.332237"/>
     <use style="fill-opacity:0.3;stroke:#000000;stroke-opacity:0.3;" x="142.343721" xlink:href="#maf372afc66" y="368.090214"/>
     <use style="fill-opacity:0.3;stroke:#000000;stroke-opacity:0.3;" x="164.985349" xlink:href="#maf372afc66" y="386.50403"/>
     <use style="fill-opacity:0.3;stroke:#000000;stroke-opacity:0.3;" x="174.221776" xlink:href="#maf372afc66" y="313.379934"/>
     <use style="fill-opacity:0.3;stroke:#000000;stroke-opacity:0.3;" x="162.769105" xlink:href="#maf372afc66" y="306.120641"/>
     <use style="fill-opacity:0.3;stroke:#000000;stroke-opacity:0.3;" x="142.455893" xlink:href="#maf372afc66" y="375.172451"/>
     <use style="fill-opacity:0.3;stroke:#000000;stroke-opacity:0.3;" x="114.031912" xlink:href="#maf372afc66" y="302.933635"/>
     <use style="fill-opacity:0.3;stroke:#000000;stroke-opacity:0.3;" x="174.907575" xlink:href="#maf372afc66" y="277.241385"/>
     <use style="fill-opacity:0.3;stroke:#000000;stroke-opacity:0.3;" x="175.883849" xlink:href="#maf372afc66" y="283.280428"/>
     <use style="fill-opacity:0.3;stroke:#000000;stroke-opacity:0.3;" x="189.863812" xlink:href="#maf372afc66" y="351.446957"/>
     <use style="fill-opacity:0.3;stroke:#000000;stroke-opacity:0.3;" x="145.590998" xlink:href="#maf372afc66" y="320.639227"/>
     <use style="fill-opacity:0.3;stroke:#000000;stroke-opacity:0.3;" x="112.097171" xlink:href="#maf372afc66" y="304.350082"/>
     <use style="fill-opacity:0.3;stroke:#000000;stroke-opacity:0.3;" x="189.953672" xlink:href="#maf372afc66" y="371.985444"/>
     <use style="fill-opacity:0.3;stroke:#000000;stroke-opacity:0.3;" x="193.859802" xlink:href="#maf372afc66" y="376.05773"/>
     <use style="fill-opacity:0.3;stroke:#000000;stroke-opacity:0.3;" x="167.742008" xlink:href="#maf372afc66" y="311.255263"/>
     <use style="fill-opacity:0.3;stroke:#000000;stroke-opacity:0.3;" x="193.100436" xlink:href="#maf372afc66" y="387.212253"/>
     <use style="fill-opacity:0.3;stroke:#000000;stroke-opacity:0.3;" x="190.539546" xlink:href="#maf372afc66" y="234.767105"/>
     <use style="fill-opacity:0.3;stroke:#000000;stroke-opacity:0.3;" x="168.779934" xlink:href="#maf372afc66" y="301.517188"/>
     <use style="fill-opacity:0.3;stroke:#000000;stroke-opacity:0.3;" x="167.594913" xlink:href="#maf372afc66" y="291.956168"/>
     <use style="fill-opacity:0.3;stroke:#000000;stroke-opacity:0.3;" x="168.060164" xlink:href="#maf372afc66" y="371.808388"/>
    </g>
   </g>
   <g id="PathCollection_27">
    <g clip-path="url(#p81e649a3a5)">
     <use style="fill-opacity:0.3;stroke:#000000;stroke-opacity:0.3;" x="256.014899" xlink:href="#maf372afc66" y="373.04778"/>
     <use style="fill-opacity:0.3;stroke:#000000;stroke-opacity:0.3;" x="298.949666" xlink:href="#maf372afc66" y="317.45222"/>
     <use style="fill-opacity:0.3;stroke:#000000;stroke-opacity:0.3;" x="283.02951" xlink:href="#maf372afc66" y="306.297697"/>
     <use style="fill-opacity:0.3;stroke:#000000;stroke-opacity:0.3;" x="263.194248" xlink:href="#maf372afc66" y="379.775905"/>
     <use style="fill-opacity:0.3;stroke:#000000;stroke-opacity:0.3;" x="306.52059" xlink:href="#maf372afc66" y="346.312336"/>
     <use style="fill-opacity:0.3;stroke:#000000;stroke-opacity:0.3;" x="254.403984" xlink:href="#maf372afc66" y="417.31176"/>
     <use style="fill-opacity:0.3;stroke:#000000;stroke-opacity:0.3;" x="275.132358" xlink:href="#maf372afc66" y="237.954112"/>
     <use style="fill-opacity:0.3;stroke:#000000;stroke-opacity:0.3;" x="257.31876" xlink:href="#maf372afc66" y="376.05773"/>
     <use style="fill-opacity:0.3;stroke:#000000;stroke-opacity:0.3;" x="296.776979" xlink:href="#maf372afc66" y="323.792736"/>
     <use style="fill-opacity:0.3;stroke:#000000;stroke-opacity:0.3;" x="278.782498" xlink:href="#maf372afc66" y="243.974013"/>
     <use style="fill-opacity:0.3;stroke:#000000;stroke-opacity:0.3;" x="256.973286" xlink:href="#maf372afc66" y="409.344243"/>
     <use style="fill-opacity:0.3;stroke:#000000;stroke-opacity:0.3;" x="299.517383" xlink:href="#maf372afc66" y="335.866036"/>
     <use style="fill-opacity:0.3;stroke:#000000;stroke-opacity:0.3;" x="310.400681" xlink:href="#maf372afc66" y="339.230099"/>
     <use style="fill-opacity:0.3;stroke:#000000;stroke-opacity:0.3;" x="260.187077" xlink:href="#maf372afc66" y="344.718832"/>
     <use style="fill-opacity:0.3;stroke:#000000;stroke-opacity:0.3;" x="282.912346" xlink:href="#maf372afc66" y="257.961431"/>
     <use style="fill-opacity:0.3;stroke:#000000;stroke-opacity:0.3;" x="312.090294" xlink:href="#maf372afc66" y="315.150493"/>
     <use style="fill-opacity:0.3;stroke:#000000;stroke-opacity:0.3;" x="265.716219" xlink:href="#maf372afc66" y="285.582155"/>
     <use style="fill-opacity:0.3;stroke:#000000;stroke-opacity:0.3;" x="288.986858" xlink:href="#maf372afc66" y="396.529223"/>
     <use style="fill-opacity:0.3;stroke:#000000;stroke-opacity:0.3;" x="278.53601" xlink:href="#maf372afc66" y="251.410362"/>
     <use style="fill-opacity:0.3;stroke:#000000;stroke-opacity:0.3;" x="272.551114" xlink:href="#maf372afc66" y="331.085526"/>
     <use style="fill-opacity:0.3;stroke:#000000;stroke-opacity:0.3;" x="261.139512" xlink:href="#maf372afc66" y="260.794326"/>
     <use style="fill-opacity:0.3;stroke:#000000;stroke-opacity:0.3;" x="271.88162" xlink:href="#maf372afc66" y="285.759211"/>
     <use style="fill-opacity:0.3;stroke:#000000;stroke-opacity:0.3;" x="307.881664" xlink:href="#maf372afc66" y="363.132648"/>
     <use style="fill-opacity:0.3;stroke:#000000;stroke-opacity:0.3;" x="295.881492" xlink:href="#maf372afc66" y="290.008553"/>
     <use style="fill-opacity:0.3;stroke:#000000;stroke-opacity:0.3;" x="267.715801" xlink:href="#maf372afc66" y="311.609375"/>
     <use style="fill-opacity:0.3;stroke:#000000;stroke-opacity:0.3;" x="304.07301" xlink:href="#maf372afc66" y="328.252632"/>
     <use style="fill-opacity:0.3;stroke:#000000;stroke-opacity:0.3;" x="268.581241" xlink:href="#maf372afc66" y="290.716776"/>
     <use style="fill-opacity:0.3;stroke:#000000;stroke-opacity:0.3;" x="257.044245" xlink:href="#maf372afc66" y="364.372039"/>
     <use style="fill-opacity:0.3;stroke:#000000;stroke-opacity:0.3;" x="274.075463" xlink:href="#maf372afc66" y="308.953536"/>
     <use style="fill-opacity:0.3;stroke:#000000;stroke-opacity:0.3;" x="250.842682" xlink:href="#maf372afc66" y="403.678454"/>
    </g>
   </g>
   <g id="line2d_3">
    <path clip-path="url(#p81e649a3a5)" d="M 221.221366 337.17625 
L 221.221366 312.955 
" style="fill:none;stroke:#000000;stroke-linecap:round;stroke-width:3;"/>
   </g>
   <g id="line2d_4">
    <path clip-path="url(#p81e649a3a5)" d="M 215.244268 337.17625 
L 227.198465 337.17625 
" style="fill:none;stroke:#000000;stroke-linecap:round;stroke-width:3;"/>
   </g>
   <g id="line2d_5">
    <path clip-path="url(#p81e649a3a5)" d="M 215.244268 312.955 
L 227.198465 312.955 
" style="fill:none;stroke:#000000;stroke-linecap:round;stroke-width:3;"/>
   </g>
   <g id="line2d_6">
    <defs>
     <path d="M 0 7.5 
C 1.989023 7.5 3.896849 6.709753 5.303301 5.303301 
C 6.709753 3.896849 7.5 1.989023 7.5 0 
C 7.5 -1.989023 6.709753 -3.896849 5.303301 -5.303301 
C 3.896849 -6.709753 1.989023 -7.5 0 -7.5 
C -1.989023 -7.5 -3.896849 -6.709753 -5.303301 -5.303301 
C -6.709753 -3.896849 -7.5 -1.989023 -7.5 0 
C -7.5 1.989023 -6.709753 3.896849 -5.303301 5.303301 
C -3.896849 6.709753 -1.989023 7.5 0 7.5 
z
" id="m9d8c66a54a" style="stroke:#000000;"/>
    </defs>
    <g clip-path="url(#p81e649a3a5)">
     <use style="stroke:#000000;" x="221.221366" xlink:href="#m9d8c66a54a" y="325.342614"/>
    </g>
   </g>
   <g id="line2d_7">
    <path clip-path="url(#p81e649a3a5)" d="M 96.3 345.25 
L 346.142733 345.25 
" style="fill:none;stroke:#000000;stroke-dasharray:7.4,3.2;stroke-dashoffset:0;stroke-width:2;"/>
   </g>
   <g id="patch_6">
    <path d="M 96.3 668.2 
L 96.3 22.3 
" style="fill:none;stroke:#262626;stroke-linecap:square;stroke-linejoin:miter;stroke-width:2;"/>
   </g>
  </g>
 </g>
 <defs>
  <clipPath id="pda2dacf812">
   <rect height="407.8" width="961.628199" x="452.192733" y="141.35"/>
  </clipPath>
  <clipPath id="p81e649a3a5">
   <rect height="645.9" width="249.842733" x="96.3" y="22.3"/>
  </clipPath>
 </defs>
</svg>
