<?xml version="1.0" encoding="utf-8" standalone="no"?>
<!DOCTYPE svg PUBLIC "-//W3C//DTD SVG 1.1//EN"
  "http://www.w3.org/Graphics/SVG/1.1/DTD/svg11.dtd">
<svg height="720pt" version="1.1" viewBox="0 0 1440 720" width="1440pt" xmlns="http://www.w3.org/2000/svg" xmlns:xlink="http://www.w3.org/1999/xlink">
 <metadata>
  <rdf:RDF xmlns:cc="http://creativecommons.org/ns#" xmlns:dc="http://purl.org/dc/elements/1.1/" xmlns:rdf="http://www.w3.org/1999/02/22-rdf-syntax-ns#">
   <cc:Work>
    <dc:type rdf:resource="http://purl.org/dc/dcmitype/StillImage"/>
    <dc:date>2024-11-07T22:50:01.571862</dc:date>
    <dc:format>image/svg+xml</dc:format>
    <dc:creator>
     <cc:Agent>
      <dc:title>Matplotlib v3.4.3, https://matplotlib.org/</dc:title>
     </cc:Agent>
    </dc:creator>
   </cc:Work>
  </rdf:RDF>
 </metadata>
 <defs>
  <style type="text/css">*{stroke-linecap:butt;stroke-linejoin:round;}</style>
 </defs>
 <g id="figure_1">
  <g id="patch_1">
   <path d="M 0 720 
L 1440 720 
L 1440 0 
L 0 0 
z
" style="fill:#ffffff;"/>
  </g>
  <g id="axes_1">
   <g id="patch_2">
    <path d="M 470.817733 549.15 
L 1413.820932 549.15 
L 1413.820932 141.35 
L 470.817733 141.35 
z
" style="fill:#ffffff;"/>
   </g>
   <g id="matplotlib.axis_1">
    <g id="xtick_1">
     <g id="text_1">
      <!-- 100 -->
      <g style="fill:#262626;" transform="translate(465.596472 576.24875)scale(0.28 -0.28)">
       <defs>
        <path d="M 2297 0 
L 1697 0 
L 1697 3194 
L 647 3194 
L 647 3641 
Q 1197 3659 1465 3817 
Q 1734 3975 1856 4500 
L 2297 4500 
L 2297 0 
z
" id="HelveticaWorld-Regular-31" transform="scale(0.015625)"/>
        <path d="M 2719 2188 
Q 2719 3091 2480 3542 
Q 2241 3994 1778 3994 
Q 1325 3994 1081 3542 
Q 838 3091 838 2188 
Q 838 1313 1078 848 
Q 1319 384 1778 384 
Q 2241 384 2480 832 
Q 2719 1281 2719 2188 
z
M 3322 2188 
Q 3322 1081 2922 479 
Q 2522 -122 1778 -122 
Q 1006 -122 622 501 
Q 238 1125 238 2188 
Q 238 3278 631 3889 
Q 1025 4500 1778 4500 
Q 2522 4500 2922 3892 
Q 3322 3284 3322 2188 
z
" id="HelveticaWorld-Regular-30" transform="scale(0.015625)"/>
       </defs>
       <use xlink:href="#HelveticaWorld-Regular-31"/>
       <use x="55.615234" xlink:href="#HelveticaWorld-Regular-30"/>
       <use x="111.230469" xlink:href="#HelveticaWorld-Regular-30"/>
      </g>
     </g>
    </g>
    <g id="xtick_2">
     <g id="text_2">
      <!-- 500 -->
      <g style="fill:#262626;" transform="translate(527.069953 576.24875)scale(0.28 -0.28)">
       <defs>
        <path d="M 941 2619 
Q 1313 2900 1813 2900 
Q 2419 2900 2855 2497 
Q 3291 2094 3291 1459 
Q 3291 769 2870 320 
Q 2450 -128 1691 -128 
Q 1031 -128 650 195 
Q 269 519 206 1113 
L 788 1113 
Q 831 750 1072 558 
Q 1313 366 1741 366 
Q 2156 366 2422 653 
Q 2688 941 2688 1388 
Q 2688 1844 2409 2119 
Q 2131 2394 1691 2394 
Q 1191 2394 856 1966 
L 372 1991 
L 709 4397 
L 3041 4397 
L 3041 3853 
L 1131 3853 
L 941 2619 
z
" id="HelveticaWorld-Regular-35" transform="scale(0.015625)"/>
       </defs>
       <use xlink:href="#HelveticaWorld-Regular-35"/>
       <use x="55.615234" xlink:href="#HelveticaWorld-Regular-30"/>
       <use x="111.230469" xlink:href="#HelveticaWorld-Regular-30"/>
      </g>
     </g>
    </g>
    <g id="xtick_3">
     <g id="text_3">
      <!-- 1000 -->
      <g style="fill:#262626;" transform="translate(596.126492 576.24875)scale(0.28 -0.28)">
       <use xlink:href="#HelveticaWorld-Regular-31"/>
       <use x="55.615234" xlink:href="#HelveticaWorld-Regular-30"/>
       <use x="111.230469" xlink:href="#HelveticaWorld-Regular-30"/>
       <use x="166.845703" xlink:href="#HelveticaWorld-Regular-30"/>
      </g>
     </g>
    </g>
    <g id="xtick_4">
     <g id="text_4">
      <!-- 2000 -->
      <g style="fill:#262626;" transform="translate(749.810195 576.24875)scale(0.28 -0.28)">
       <defs>
        <path d="M 281 2888 
Q 281 3681 690 4090 
Q 1100 4500 1838 4500 
Q 2456 4500 2850 4125 
Q 3244 3750 3244 3156 
Q 3244 2694 3017 2376 
Q 2791 2059 2350 1819 
L 1575 1394 
Q 891 1019 800 531 
L 3244 531 
L 3244 0 
L 166 0 
Q 191 634 441 1056 
Q 691 1478 1222 1784 
L 2028 2253 
Q 2350 2438 2497 2636 
Q 2644 2834 2644 3181 
Q 2644 3525 2403 3759 
Q 2163 3994 1753 3994 
Q 1300 3994 1075 3695 
Q 850 3397 844 2888 
L 281 2888 
z
" id="HelveticaWorld-Regular-32" transform="scale(0.015625)"/>
       </defs>
       <use xlink:href="#HelveticaWorld-Regular-32"/>
       <use x="55.615234" xlink:href="#HelveticaWorld-Regular-30"/>
       <use x="111.230469" xlink:href="#HelveticaWorld-Regular-30"/>
       <use x="166.845703" xlink:href="#HelveticaWorld-Regular-30"/>
      </g>
     </g>
    </g>
    <g id="xtick_5">
     <g id="text_5">
      <!-- 3000 -->
      <g style="fill:#262626;" transform="translate(903.493897 576.24875)scale(0.28 -0.28)">
       <defs>
        <path d="M 1434 2559 
Q 1575 2547 1728 2547 
Q 2125 2547 2354 2730 
Q 2584 2913 2584 3284 
Q 2584 3584 2370 3789 
Q 2156 3994 1753 3994 
Q 1306 3994 1098 3731 
Q 891 3469 878 3028 
L 325 3028 
Q 325 3731 694 4115 
Q 1063 4500 1778 4500 
Q 2413 4500 2791 4173 
Q 3169 3847 3169 3316 
Q 3169 2631 2591 2388 
L 2591 2375 
Q 3341 2119 3341 1325 
Q 3341 691 2919 284 
Q 2497 -122 1722 -122 
Q 1088 -122 678 211 
Q 269 544 219 1375 
L 800 1375 
Q 813 856 1056 620 
Q 1300 384 1759 384 
Q 2203 384 2472 631 
Q 2741 878 2741 1253 
Q 2741 1663 2484 1872 
Q 2228 2081 1691 2081 
Q 1563 2081 1434 2075 
L 1434 2559 
z
" id="HelveticaWorld-Regular-33" transform="scale(0.015625)"/>
       </defs>
       <use xlink:href="#HelveticaWorld-Regular-33"/>
       <use x="55.615234" xlink:href="#HelveticaWorld-Regular-30"/>
       <use x="111.230469" xlink:href="#HelveticaWorld-Regular-30"/>
       <use x="166.845703" xlink:href="#HelveticaWorld-Regular-30"/>
      </g>
     </g>
    </g>
    <g id="xtick_6">
     <g id="text_6">
      <!-- 4000 -->
      <g style="fill:#262626;" transform="translate(1057.1776 576.24875)scale(0.28 -0.28)">
       <defs>
        <path d="M 678 1581 
L 2125 1581 
L 2125 3622 
L 2113 3622 
L 678 1581 
z
M 2688 1094 
L 2688 0 
L 2125 0 
L 2125 1094 
L 159 1094 
L 159 1644 
L 2222 4500 
L 2688 4500 
L 2688 1581 
L 3347 1581 
L 3347 1094 
L 2688 1094 
z
" id="HelveticaWorld-Regular-34" transform="scale(0.015625)"/>
       </defs>
       <use xlink:href="#HelveticaWorld-Regular-34"/>
       <use x="55.615234" xlink:href="#HelveticaWorld-Regular-30"/>
       <use x="111.230469" xlink:href="#HelveticaWorld-Regular-30"/>
       <use x="166.845703" xlink:href="#HelveticaWorld-Regular-30"/>
      </g>
     </g>
    </g>
    <g id="xtick_7">
     <g id="text_7">
      <!-- 5000 -->
      <g style="fill:#262626;" transform="translate(1210.861302 576.24875)scale(0.28 -0.28)">
       <use xlink:href="#HelveticaWorld-Regular-35"/>
       <use x="55.615234" xlink:href="#HelveticaWorld-Regular-30"/>
       <use x="111.230469" xlink:href="#HelveticaWorld-Regular-30"/>
       <use x="166.845703" xlink:href="#HelveticaWorld-Regular-30"/>
      </g>
     </g>
    </g>
    <g id="xtick_8">
     <g id="text_8">
      <!-- 6000 -->
      <g style="fill:#262626;" transform="translate(1364.545005 576.24875)scale(0.28 -0.28)">
       <defs>
        <path d="M 903 1381 
Q 903 941 1165 662 
Q 1428 384 1850 384 
Q 2253 384 2492 668 
Q 2731 953 2731 1416 
Q 2731 1819 2495 2091 
Q 2259 2363 1825 2363 
Q 1403 2363 1153 2097 
Q 903 1831 903 1381 
z
M 2669 3303 
Q 2606 3647 2414 3820 
Q 2222 3994 1894 3994 
Q 1375 3994 1103 3487 
Q 831 2981 825 2328 
L 838 2316 
Q 1197 2869 1906 2869 
Q 2472 2869 2894 2494 
Q 3316 2119 3316 1441 
Q 3316 769 2916 323 
Q 2516 -122 1838 -122 
Q 1056 -122 650 434 
Q 244 991 244 2094 
Q 244 3156 659 3828 
Q 1075 4500 1906 4500 
Q 2444 4500 2816 4179 
Q 3188 3859 3219 3303 
L 2669 3303 
z
" id="HelveticaWorld-Regular-36" transform="scale(0.015625)"/>
       </defs>
       <use xlink:href="#HelveticaWorld-Regular-36"/>
       <use x="55.615234" xlink:href="#HelveticaWorld-Regular-30"/>
       <use x="111.230469" xlink:href="#HelveticaWorld-Regular-30"/>
       <use x="166.845703" xlink:href="#HelveticaWorld-Regular-30"/>
      </g>
     </g>
    </g>
    <g id="text_9">
     <!-- Number of Voxels -->
     <g style="fill:#262626;" transform="translate(819.461832 609.015625)scale(0.32 -0.32)">
      <defs>
       <path d="M 3559 4594 
L 4159 4594 
L 4159 0 
L 3469 0 
L 1125 3713 
L 1113 3713 
L 1113 0 
L 519 0 
L 519 4594 
L 1247 4594 
L 3547 884 
L 3559 884 
L 3559 4594 
z
" id="HelveticaWorld-Regular-4e" transform="scale(0.015625)"/>
       <path d="M 391 3347 
L 953 3347 
L 953 1125 
Q 953 756 1120 573 
Q 1288 391 1600 391 
Q 2034 391 2278 698 
Q 2522 1006 2522 1503 
L 2522 3347 
L 3084 3347 
L 3084 0 
L 2553 0 
L 2553 488 
L 2541 500 
Q 2222 -97 1478 -97 
Q 997 -97 694 165 
Q 391 428 391 941 
L 391 3347 
z
" id="HelveticaWorld-Regular-75" transform="scale(0.015625)"/>
       <path d="M 422 3347 
L 953 3347 
L 953 2875 
L 966 2875 
Q 1344 3444 1978 3444 
Q 2606 3444 2869 2900 
Q 3109 3194 3334 3319 
Q 3559 3444 3891 3444 
Q 4325 3444 4626 3159 
Q 4928 2875 4928 2316 
L 4928 0 
L 4366 0 
L 4366 2163 
Q 4366 2553 4219 2745 
Q 4072 2938 3744 2938 
Q 3413 2938 3184 2669 
Q 2956 2400 2956 2041 
L 2956 0 
L 2394 0 
L 2394 2316 
Q 2394 2606 2259 2772 
Q 2125 2938 1869 2938 
Q 1466 2938 1225 2638 
Q 984 2338 984 1825 
L 984 0 
L 422 0 
L 422 3347 
z
" id="HelveticaWorld-Regular-6d" transform="scale(0.015625)"/>
       <path d="M 2778 1684 
Q 2778 2356 2540 2647 
Q 2303 2938 1863 2938 
Q 1416 2931 1187 2589 
Q 959 2247 959 1600 
Q 959 941 1234 666 
Q 1509 391 1875 391 
Q 2291 391 2534 733 
Q 2778 1075 2778 1684 
z
M 422 0 
L 422 4594 
L 984 4594 
L 984 2925 
L 997 2925 
Q 1356 3444 1966 3444 
Q 2591 3444 2975 2980 
Q 3359 2516 3359 1772 
Q 3359 934 2971 418 
Q 2584 -97 1888 -97 
Q 1275 -97 966 416 
L 953 416 
L 953 0 
L 422 0 
z
" id="HelveticaWorld-Regular-62" transform="scale(0.015625)"/>
       <path d="M 2719 1941 
Q 2675 2484 2431 2711 
Q 2188 2938 1784 2938 
Q 1375 2938 1123 2650 
Q 872 2363 856 1941 
L 2719 1941 
z
M 3256 1050 
Q 3163 531 2747 191 
Q 2381 -97 1784 -103 
Q 1081 -97 668 358 
Q 256 813 256 1581 
Q 256 2463 681 2953 
Q 1106 3444 1863 3444 
Q 2541 3444 2922 2937 
Q 3303 2431 3303 1491 
L 856 1491 
Q 856 966 1100 678 
Q 1344 391 1831 391 
Q 2175 391 2422 598 
Q 2669 806 2694 1050 
L 3256 1050 
z
" id="HelveticaWorld-Regular-65" transform="scale(0.015625)"/>
       <path d="M 984 0 
L 422 0 
L 422 3347 
L 953 3347 
L 953 2791 
L 966 2791 
Q 1331 3444 1906 3444 
Q 1997 3444 2053 3425 
L 2053 2841 
L 1844 2841 
Q 1466 2841 1225 2584 
Q 984 2328 984 1947 
L 984 0 
z
" id="HelveticaWorld-Regular-72" transform="scale(0.015625)"/>
       <path id="HelveticaWorld-Regular-20" transform="scale(0.015625)"/>
       <path d="M 813 1678 
Q 813 1119 1066 758 
Q 1319 397 1784 397 
Q 2266 397 2516 775 
Q 2766 1153 2766 1678 
Q 2766 2209 2516 2579 
Q 2266 2950 1784 2950 
Q 1338 2950 1075 2601 
Q 813 2253 813 1678 
z
M 238 1678 
Q 238 2425 653 2934 
Q 1069 3444 1784 3444 
Q 2516 3444 2928 2928 
Q 3341 2413 3341 1678 
Q 3341 941 2931 422 
Q 2522 -97 1784 -97 
Q 1075 -97 656 406 
Q 238 909 238 1678 
z
" id="HelveticaWorld-Regular-6f" transform="scale(0.015625)"/>
       <path d="M 1100 2881 
L 1100 0 
L 538 0 
L 538 2881 
L 78 2881 
L 78 3347 
L 538 3347 
L 538 3922 
Q 538 4300 767 4479 
Q 997 4659 1409 4659 
Q 1550 4659 1663 4647 
L 1663 4141 
Q 1563 4153 1434 4153 
Q 1247 4153 1173 4061 
Q 1100 3969 1100 3763 
L 1100 3347 
L 1663 3347 
L 1663 2881 
L 1100 2881 
z
" id="HelveticaWorld-Regular-66" transform="scale(0.015625)"/>
       <path d="M 3413 4594 
L 4109 4594 
L 2425 0 
L 1772 0 
L 97 4594 
L 788 4594 
L 2100 678 
L 2113 678 
L 3413 4594 
z
" id="HelveticaWorld-Regular-56" transform="scale(0.015625)"/>
       <path d="M 3138 0 
L 2413 0 
L 1588 1259 
L 781 0 
L 72 0 
L 1241 1722 
L 128 3347 
L 844 3347 
L 1619 2169 
L 2400 3347 
L 3084 3347 
L 1959 1722 
L 3138 0 
z
" id="HelveticaWorld-Regular-78" transform="scale(0.015625)"/>
       <path d="M 984 0 
L 422 0 
L 422 4594 
L 984 4594 
L 984 0 
z
" id="HelveticaWorld-Regular-6c" transform="scale(0.015625)"/>
       <path d="M 2309 2394 
Q 2297 2694 2095 2825 
Q 1894 2956 1516 2956 
Q 1241 2956 1045 2834 
Q 850 2713 850 2484 
Q 850 2303 965 2217 
Q 1081 2131 1466 2034 
L 2022 1894 
Q 2528 1766 2745 1567 
Q 2963 1369 2963 1013 
Q 2963 519 2602 211 
Q 2241 -97 1638 -97 
Q 934 -97 573 195 
Q 213 488 206 1075 
L 750 1075 
Q 763 728 980 559 
Q 1197 391 1631 391 
Q 1984 391 2192 531 
Q 2400 672 2400 922 
Q 2400 1100 2265 1206 
Q 2131 1313 1734 1403 
L 1081 1563 
Q 684 1663 495 1861 
Q 306 2059 306 2375 
Q 306 2869 659 3156 
Q 1013 3444 1581 3444 
Q 2188 3444 2511 3148 
Q 2834 2853 2853 2394 
L 2309 2394 
z
" id="HelveticaWorld-Regular-73" transform="scale(0.015625)"/>
      </defs>
      <use xlink:href="#HelveticaWorld-Regular-4e"/>
      <use x="73.095703" xlink:href="#HelveticaWorld-Regular-75"/>
      <use x="127.880859" xlink:href="#HelveticaWorld-Regular-6d"/>
      <use x="210.888672" xlink:href="#HelveticaWorld-Regular-62"/>
      <use x="267.382812" xlink:href="#HelveticaWorld-Regular-65"/>
      <use x="322.802734" xlink:href="#HelveticaWorld-Regular-72"/>
      <use x="355.371094" xlink:href="#HelveticaWorld-Regular-20"/>
      <use x="379.785156" xlink:href="#HelveticaWorld-Regular-6f"/>
      <use x="435.693359" xlink:href="#HelveticaWorld-Regular-66"/>
      <use x="463.378906" xlink:href="#HelveticaWorld-Regular-20"/>
      <use x="482.792969" xlink:href="#HelveticaWorld-Regular-56"/>
      <use x="540.619141" xlink:href="#HelveticaWorld-Regular-6f"/>
      <use x="593.652344" xlink:href="#HelveticaWorld-Regular-78"/>
      <use x="640.402344" xlink:href="#HelveticaWorld-Regular-65"/>
      <use x="695.822266" xlink:href="#HelveticaWorld-Regular-6c"/>
      <use x="717.84375" xlink:href="#HelveticaWorld-Regular-73"/>
     </g>
    </g>
   </g>
   <g id="matplotlib.axis_2">
    <g id="ytick_1">
     <g id="text_10">
      <!-- −0.05 -->
      <g style="fill:#262626;" transform="translate(392.920858 559.199375)scale(0.28 -0.28)">
       <defs>
        <path d="M 3494 1381 
L 256 1381 
L 256 1850 
L 3494 1850 
L 3494 1381 
z
" id="HelveticaWorld-Regular-2212" transform="scale(0.015625)"/>
        <path d="M 1222 0 
L 556 0 
L 556 678 
L 1222 678 
L 1222 0 
z
" id="HelveticaWorld-Regular-2e" transform="scale(0.015625)"/>
       </defs>
       <use xlink:href="#HelveticaWorld-Regular-2212"/>
       <use x="58.59375" xlink:href="#HelveticaWorld-Regular-30"/>
       <use x="114.208984" xlink:href="#HelveticaWorld-Regular-2e"/>
       <use x="141.992188" xlink:href="#HelveticaWorld-Regular-30"/>
       <use x="197.607422" xlink:href="#HelveticaWorld-Regular-35"/>
      </g>
     </g>
    </g>
    <g id="ytick_2">
     <g id="text_11">
      <!-- 0.00 -->
      <g style="fill:#262626;" transform="translate(409.327108 477.639375)scale(0.28 -0.28)">
       <use xlink:href="#HelveticaWorld-Regular-30"/>
       <use x="55.615234" xlink:href="#HelveticaWorld-Regular-2e"/>
       <use x="83.398438" xlink:href="#HelveticaWorld-Regular-30"/>
       <use x="139.013672" xlink:href="#HelveticaWorld-Regular-30"/>
      </g>
     </g>
    </g>
    <g id="ytick_3">
     <g id="text_12">
      <!-- 0.05 -->
      <g style="fill:#262626;" transform="translate(409.327108 396.079375)scale(0.28 -0.28)">
       <use xlink:href="#HelveticaWorld-Regular-30"/>
       <use x="55.615234" xlink:href="#HelveticaWorld-Regular-2e"/>
       <use x="83.398438" xlink:href="#HelveticaWorld-Regular-30"/>
       <use x="139.013672" xlink:href="#HelveticaWorld-Regular-35"/>
      </g>
     </g>
    </g>
    <g id="ytick_4">
     <g id="text_13">
      <!-- 0.10 -->
      <g style="fill:#262626;" transform="translate(409.327108 314.519375)scale(0.28 -0.28)">
       <use xlink:href="#HelveticaWorld-Regular-30"/>
       <use x="55.615234" xlink:href="#HelveticaWorld-Regular-2e"/>
       <use x="83.398438" xlink:href="#HelveticaWorld-Regular-31"/>
       <use x="139.013672" xlink:href="#HelveticaWorld-Regular-30"/>
      </g>
     </g>
    </g>
    <g id="ytick_5">
     <g id="text_14">
      <!-- 0.15 -->
      <g style="fill:#262626;" transform="translate(409.327108 232.959375)scale(0.28 -0.28)">
       <use xlink:href="#HelveticaWorld-Regular-30"/>
       <use x="55.615234" xlink:href="#HelveticaWorld-Regular-2e"/>
       <use x="83.398438" xlink:href="#HelveticaWorld-Regular-31"/>
       <use x="139.013672" xlink:href="#HelveticaWorld-Regular-35"/>
      </g>
     </g>
    </g>
    <g id="text_15">
     <!-- Classifier Information (a.u.) -->
     <g style="fill:#262626;" transform="translate(382.295858 534.615)rotate(-90)scale(0.32 -0.32)">
      <defs>
       <path d="M 3713 3213 
Q 3609 3681 3279 3923 
Q 2950 4166 2425 4166 
Q 1747 4166 1334 3673 
Q 922 3181 922 2344 
Q 922 1375 1312 901 
Q 1703 428 2444 428 
Q 2931 428 3282 751 
Q 3634 1075 3756 1691 
L 4359 1691 
Q 4238 806 3688 342 
Q 3138 -122 2350 -122 
Q 1409 -122 845 525 
Q 281 1172 281 2322 
Q 281 3431 870 4073 
Q 1459 4716 2425 4716 
Q 3225 4716 3722 4303 
Q 4219 3891 4313 3213 
L 3713 3213 
z
" id="HelveticaWorld-Regular-43" transform="scale(0.015625)"/>
       <path d="M 2456 1709 
Q 2394 1644 2211 1603 
Q 2028 1563 1528 1497 
Q 1159 1453 986 1315 
Q 813 1178 813 953 
Q 813 678 959 525 
Q 1106 372 1428 372 
Q 1831 372 2143 601 
Q 2456 831 2456 1159 
L 2456 1709 
z
M 397 2328 
Q 416 2894 764 3169 
Q 1113 3444 1778 3444 
Q 2309 3444 2668 3203 
Q 3028 2963 3028 2509 
L 3028 581 
Q 3028 384 3206 384 
Q 3278 384 3391 409 
L 3391 0 
Q 3238 -63 3072 -63 
Q 2784 -63 2643 60 
Q 2503 184 2497 447 
Q 2016 -97 1288 -97 
Q 813 -97 525 172 
Q 238 441 238 872 
Q 238 1313 488 1584 
Q 738 1856 1216 1913 
L 2209 2034 
Q 2478 2075 2478 2431 
Q 2478 2694 2283 2834 
Q 2088 2975 1691 2975 
Q 1338 2975 1148 2819 
Q 959 2663 922 2328 
L 397 2328 
z
" id="HelveticaWorld-Regular-61" transform="scale(0.015625)"/>
       <path d="M 422 3956 
L 422 4594 
L 984 4594 
L 984 3956 
L 422 3956 
z
M 984 0 
L 422 0 
L 422 3347 
L 984 3347 
L 984 0 
z
" id="HelveticaWorld-Regular-69" transform="scale(0.015625)"/>
       <path d="M 1141 0 
L 519 0 
L 519 4594 
L 1141 4594 
L 1141 0 
z
" id="HelveticaWorld-Regular-49" transform="scale(0.015625)"/>
       <path d="M 3150 0 
L 2584 0 
L 2584 2059 
Q 2584 2534 2418 2736 
Q 2253 2938 1869 2938 
Q 1491 2938 1237 2650 
Q 984 2363 984 1825 
L 984 0 
L 422 0 
L 422 3347 
L 953 3347 
L 953 2875 
L 966 2875 
Q 1363 3444 1978 3444 
Q 2547 3444 2848 3142 
Q 3150 2841 3150 2278 
L 3150 0 
z
" id="HelveticaWorld-Regular-6e" transform="scale(0.015625)"/>
       <path d="M 1100 2881 
L 1100 703 
Q 1100 575 1170 508 
Q 1241 441 1422 441 
L 1638 441 
L 1638 0 
Q 1331 -44 1216 -44 
Q 863 -44 700 125 
Q 538 294 538 672 
L 538 2881 
L 84 2881 
L 84 3347 
L 538 3347 
L 538 4281 
L 1100 4281 
L 1100 3347 
L 1638 3347 
L 1638 2881 
L 1100 2881 
z
" id="HelveticaWorld-Regular-74" transform="scale(0.015625)"/>
       <path d="M 1906 4691 
Q 1338 3675 1188 3037 
Q 1038 2400 1038 1631 
Q 1038 872 1242 215 
Q 1447 -441 1913 -1325 
L 1538 -1325 
Q 1006 -550 720 140 
Q 434 831 434 1672 
Q 434 2463 693 3180 
Q 953 3897 1516 4691 
L 1906 4691 
z
" id="HelveticaWorld-Regular-28" transform="scale(0.015625)"/>
       <path d="M 225 -1325 
Q 788 -306 938 330 
Q 1088 966 1088 1734 
Q 1088 2497 886 3153 
Q 684 3809 219 4691 
L 588 4691 
Q 1125 3916 1411 3225 
Q 1697 2534 1697 1697 
Q 1697 903 1437 186 
Q 1178 -531 616 -1325 
L 225 -1325 
z
" id="HelveticaWorld-Regular-29" transform="scale(0.015625)"/>
      </defs>
      <use xlink:href="#HelveticaWorld-Regular-43"/>
      <use x="72.314453" xlink:href="#HelveticaWorld-Regular-6c"/>
      <use x="94.335938" xlink:href="#HelveticaWorld-Regular-61"/>
      <use x="149.267578" xlink:href="#HelveticaWorld-Regular-73"/>
      <use x="199.267578" xlink:href="#HelveticaWorld-Regular-73"/>
      <use x="249.267578" xlink:href="#HelveticaWorld-Regular-69"/>
      <use x="271.289062" xlink:href="#HelveticaWorld-Regular-66"/>
      <use x="298.974609" xlink:href="#HelveticaWorld-Regular-69"/>
      <use x="320.996094" xlink:href="#HelveticaWorld-Regular-65"/>
      <use x="376.416016" xlink:href="#HelveticaWorld-Regular-72"/>
      <use x="408.984375" xlink:href="#HelveticaWorld-Regular-20"/>
      <use x="433.398438" xlink:href="#HelveticaWorld-Regular-49"/>
      <use x="459.179688" xlink:href="#HelveticaWorld-Regular-6e"/>
      <use x="514.355469" xlink:href="#HelveticaWorld-Regular-66"/>
      <use x="540.041016" xlink:href="#HelveticaWorld-Regular-6f"/>
      <use x="595.949219" xlink:href="#HelveticaWorld-Regular-72"/>
      <use x="628.517578" xlink:href="#HelveticaWorld-Regular-6d"/>
      <use x="711.525391" xlink:href="#HelveticaWorld-Regular-61"/>
      <use x="766.457031" xlink:href="#HelveticaWorld-Regular-74"/>
      <use x="794.142578" xlink:href="#HelveticaWorld-Regular-69"/>
      <use x="816.164062" xlink:href="#HelveticaWorld-Regular-6f"/>
      <use x="872.072266" xlink:href="#HelveticaWorld-Regular-6e"/>
      <use x="927.248047" xlink:href="#HelveticaWorld-Regular-20"/>
      <use x="951.662109" xlink:href="#HelveticaWorld-Regular-28"/>
      <use x="984.962891" xlink:href="#HelveticaWorld-Regular-61"/>
      <use x="1039.894531" xlink:href="#HelveticaWorld-Regular-2e"/>
      <use x="1067.677734" xlink:href="#HelveticaWorld-Regular-75"/>
      <use x="1122.462891" xlink:href="#HelveticaWorld-Regular-2e"/>
      <use x="1150.246094" xlink:href="#HelveticaWorld-Regular-29"/>
     </g>
    </g>
   </g>
   <g id="PolyCollection_1">
    <defs>
     <path d="M 488.95241 -371.186756 
L 488.95241 -169.583658 
L 504.32078 -186.150136 
L 519.68915 -209.161433 
L 535.057521 -216.749506 
L 550.425891 -220.337045 
L 565.794261 -226.350175 
L 581.162631 -224.51064 
L 596.531002 -229.95048 
L 611.899372 -240.365742 
L 627.267742 -245.918207 
L 642.636112 -239.649179 
L 658.004483 -243.228356 
L 673.372853 -241.737833 
L 688.741223 -245.742446 
L 704.109593 -245.091561 
L 719.477964 -245.431044 
L 734.846334 -245.101058 
L 750.214704 -241.768604 
L 765.583075 -250.380603 
L 780.951445 -247.266795 
L 796.319815 -251.320841 
L 811.688185 -251.459905 
L 827.056556 -256.118483 
L 842.424926 -260.360949 
L 857.793296 -255.238606 
L 873.161666 -255.710144 
L 888.530037 -260.367652 
L 903.898407 -258.77383 
L 919.266777 -259.413537 
L 934.635147 -259.130317 
L 950.003518 -263.286944 
L 965.371888 -262.910405 
L 980.740258 -264.668102 
L 996.108628 -265.450834 
L 1011.476999 -267.141865 
L 1026.845369 -268.003821 
L 1042.213739 -266.409108 
L 1057.582109 -266.9821 
L 1072.95048 -268.754925 
L 1088.31885 -270.546303 
L 1103.68722 -276.640874 
L 1119.05559 -272.188654 
L 1134.423961 -270.06912 
L 1149.792331 -271.124795 
L 1165.160701 -278.550686 
L 1180.529071 -277.292133 
L 1195.897442 -273.943591 
L 1211.265812 -282.714603 
L 1226.634182 -278.384612 
L 1242.002552 -281.856115 
L 1257.370923 -276.718805 
L 1272.739293 -279.594036 
L 1288.107663 -282.951902 
L 1303.476034 -282.837141 
L 1318.844404 -284.941094 
L 1334.212774 -283.266391 
L 1349.581144 -283.062069 
L 1364.949515 -281.985642 
L 1380.317885 -277.78767 
L 1395.686255 -276.576617 
L 1395.686255 -402.24733 
L 1395.686255 -402.24733 
L 1380.317885 -398.48144 
L 1364.949515 -402.322905 
L 1349.581144 -407.201997 
L 1334.212774 -403.122001 
L 1318.844404 -402.099976 
L 1303.476034 -400.954107 
L 1288.107663 -409.607994 
L 1272.739293 -398.864583 
L 1257.370923 -400.851101 
L 1242.002552 -406.608173 
L 1226.634182 -408.585761 
L 1211.265812 -401.364455 
L 1195.897442 -407.298477 
L 1180.529071 -404.966072 
L 1165.160701 -402.721733 
L 1149.792331 -396.180708 
L 1134.423961 -404.104444 
L 1119.05559 -397.283434 
L 1103.68722 -405.072296 
L 1088.31885 -400.286449 
L 1072.95048 -398.373176 
L 1057.582109 -398.662662 
L 1042.213739 -393.311679 
L 1026.845369 -398.611806 
L 1011.476999 -392.34978 
L 996.108628 -394.150713 
L 980.740258 -395.877558 
L 965.371888 -392.878557 
L 950.003518 -398.015067 
L 934.635147 -395.779735 
L 919.266777 -392.737624 
L 903.898407 -390.889196 
L 888.530037 -394.069184 
L 873.161666 -390.631882 
L 857.793296 -391.952036 
L 842.424926 -395.610517 
L 827.056556 -398.967008 
L 811.688185 -395.618704 
L 796.319815 -388.824776 
L 780.951445 -400.274594 
L 765.583075 -393.901667 
L 750.214704 -395.350012 
L 734.846334 -394.458699 
L 719.477964 -391.318981 
L 704.109593 -393.799489 
L 688.741223 -397.595422 
L 673.372853 -392.001452 
L 658.004483 -393.712086 
L 642.636112 -394.21931 
L 627.267742 -413.559498 
L 611.899372 -408.440842 
L 596.531002 -405.146808 
L 581.162631 -402.078725 
L 565.794261 -413.45933 
L 550.425891 -404.621208 
L 535.057521 -402.614603 
L 519.68915 -390.373982 
L 504.32078 -367.473478 
L 488.95241 -371.186756 
z
" id="mc8fdca60b4" style="stroke:#1f77b4;stroke-opacity:0.2;"/>
    </defs>
    <g clip-path="url(#p360e8ff6e6)">
     <use style="fill:#1f77b4;fill-opacity:0.2;stroke:#1f77b4;stroke-opacity:0.2;" x="0" xlink:href="#mc8fdca60b4" y="720"/>
    </g>
   </g>
   <g id="PathCollection_1">
    <defs>
     <path d="M 0 -6.708204 
L 0 0 
L -5.809475 -3.354102 
L 0 0 
L -5.809475 3.354102 
L 0 0 
L -0 6.708204 
L 0 0 
L 5.809475 3.354102 
L 0 0 
L 5.809475 -3.354102 
L 0 0 
z
" id="mba35c21ec6" style="stroke:#000000;stroke-width:2;"/>
    </defs>
    <g clip-path="url(#p360e8ff6e6)">
     <use style="stroke:#000000;stroke-width:2;" x="1180.529071" xlink:href="#mba35c21ec6" y="532.838"/>
    </g>
   </g>
   <g id="PathCollection_2">
    <g clip-path="url(#p360e8ff6e6)">
     <use style="stroke:#000000;stroke-width:2;" x="1195.897442" xlink:href="#mba35c21ec6" y="532.838"/>
    </g>
   </g>
   <g id="PathCollection_3">
    <g clip-path="url(#p360e8ff6e6)">
     <use style="stroke:#000000;stroke-width:2;" x="1211.265812" xlink:href="#mba35c21ec6" y="532.838"/>
    </g>
   </g>
   <g id="PathCollection_4">
    <g clip-path="url(#p360e8ff6e6)">
     <use style="stroke:#000000;stroke-width:2;" x="1226.634182" xlink:href="#mba35c21ec6" y="532.838"/>
    </g>
   </g>
   <g id="PathCollection_5">
    <g clip-path="url(#p360e8ff6e6)">
     <use style="stroke:#000000;stroke-width:2;" x="1242.002552" xlink:href="#mba35c21ec6" y="532.838"/>
    </g>
   </g>
   <g id="PathCollection_6">
    <g clip-path="url(#p360e8ff6e6)">
     <use style="stroke:#000000;stroke-width:2;" x="1257.370923" xlink:href="#mba35c21ec6" y="532.838"/>
    </g>
   </g>
   <g id="PathCollection_7">
    <g clip-path="url(#p360e8ff6e6)">
     <use style="stroke:#000000;stroke-width:2;" x="1272.739293" xlink:href="#mba35c21ec6" y="532.838"/>
    </g>
   </g>
   <g id="PathCollection_8">
    <g clip-path="url(#p360e8ff6e6)">
     <use style="stroke:#000000;stroke-width:2;" x="1288.107663" xlink:href="#mba35c21ec6" y="532.838"/>
    </g>
   </g>
   <g id="PathCollection_9">
    <g clip-path="url(#p360e8ff6e6)">
     <use style="stroke:#000000;stroke-width:2;" x="1303.476034" xlink:href="#mba35c21ec6" y="532.838"/>
    </g>
   </g>
   <g id="PathCollection_10">
    <g clip-path="url(#p360e8ff6e6)">
     <use style="stroke:#000000;stroke-width:2;" x="1318.844404" xlink:href="#mba35c21ec6" y="532.838"/>
    </g>
   </g>
   <g id="PathCollection_11">
    <g clip-path="url(#p360e8ff6e6)">
     <use style="stroke:#000000;stroke-width:2;" x="1334.212774" xlink:href="#mba35c21ec6" y="532.838"/>
    </g>
   </g>
   <g id="PathCollection_12">
    <g clip-path="url(#p360e8ff6e6)">
     <use style="stroke:#000000;stroke-width:2;" x="1349.581144" xlink:href="#mba35c21ec6" y="532.838"/>
    </g>
   </g>
   <g id="PathCollection_13">
    <g clip-path="url(#p360e8ff6e6)">
     <use style="stroke:#000000;stroke-width:2;" x="1364.949515" xlink:href="#mba35c21ec6" y="532.838"/>
    </g>
   </g>
   <g id="PathCollection_14">
    <g clip-path="url(#p360e8ff6e6)">
     <use style="stroke:#000000;stroke-width:2;" x="1380.317885" xlink:href="#mba35c21ec6" y="532.838"/>
    </g>
   </g>
   <g id="PathCollection_15">
    <g clip-path="url(#p360e8ff6e6)">
     <use style="stroke:#000000;stroke-width:2;" x="1395.686255" xlink:href="#mba35c21ec6" y="532.838"/>
    </g>
   </g>
   <g id="line2d_1">
    <path clip-path="url(#p360e8ff6e6)" d="M 488.95241 452.147055 
L 504.32078 438.742865 
L 519.68915 422.016714 
L 535.057521 409.917744 
L 550.425891 405.742757 
L 565.794261 404.769721 
L 581.162631 404.737803 
L 596.531002 400.33495 
L 611.899372 395.32418 
L 627.267742 393.040784 
L 642.636112 402.380479 
L 658.004483 400.537393 
L 673.372853 403.328721 
L 688.741223 399.410684 
L 704.109593 398.616818 
L 719.477964 403.602 
L 734.846334 400.639978 
L 750.214704 400.071617 
L 765.583075 397.970681 
L 780.951445 399.386687 
L 796.319815 401.259832 
L 811.688185 395.817321 
L 827.056556 394.148307 
L 842.424926 394.018019 
L 857.793296 395.827767 
L 873.161666 394.830879 
L 888.530037 393.867362 
L 903.898407 395.488998 
L 919.266777 394.302673 
L 934.635147 394.01972 
L 950.003518 393.311429 
L 965.371888 392.548659 
L 980.740258 390.728102 
L 996.108628 388.926679 
L 1011.476999 388.770184 
L 1026.845369 388.102915 
L 1042.213739 389.347385 
L 1057.582109 387.39158 
L 1072.95048 386.594135 
L 1088.31885 386.331562 
L 1103.68722 383.913267 
L 1119.05559 384.558883 
L 1134.423961 382.950314 
L 1149.792331 381.975213 
L 1165.160701 381.629829 
L 1180.529071 380.754286 
L 1195.897442 381.563775 
L 1211.265812 380.083805 
L 1226.634182 378.750676 
L 1242.002552 377.884286 
L 1257.370923 378.078405 
L 1272.739293 377.884046 
L 1288.107663 376.987789 
L 1303.476034 378.438885 
L 1318.844404 378.872084 
L 1334.212774 379.077974 
L 1349.581144 379.542578 
L 1364.949515 379.292258 
L 1380.317885 380.233419 
L 1395.686255 380.956896 
" style="fill:none;stroke:#1f77b4;stroke-linecap:round;stroke-width:1.5;"/>
    <defs>
     <path d="M 0 5 
C 1.326016 5 2.597899 4.473168 3.535534 3.535534 
C 4.473168 2.597899 5 1.326016 5 0 
C 5 -1.326016 4.473168 -2.597899 3.535534 -3.535534 
C 2.597899 -4.473168 1.326016 -5 0 -5 
C -1.326016 -5 -2.597899 -4.473168 -3.535534 -3.535534 
C -4.473168 -2.597899 -5 -1.326016 -5 0 
C -5 1.326016 -4.473168 2.597899 -3.535534 3.535534 
C -2.597899 4.473168 -1.326016 5 0 5 
z
" id="med95b6e04b" style="stroke:#000000;stroke-opacity:0;stroke-width:0.75;"/>
    </defs>
    <g clip-path="url(#p360e8ff6e6)">
     <use style="fill:#1f77b4;stroke:#000000;stroke-opacity:0;stroke-width:0.75;" x="488.95241" xlink:href="#med95b6e04b" y="452.147055"/>
     <use style="fill:#1f77b4;stroke:#000000;stroke-opacity:0;stroke-width:0.75;" x="504.32078" xlink:href="#med95b6e04b" y="438.742865"/>
     <use style="fill:#1f77b4;stroke:#000000;stroke-opacity:0;stroke-width:0.75;" x="519.68915" xlink:href="#med95b6e04b" y="422.016714"/>
     <use style="fill:#1f77b4;stroke:#000000;stroke-opacity:0;stroke-width:0.75;" x="535.057521" xlink:href="#med95b6e04b" y="409.917744"/>
     <use style="fill:#1f77b4;stroke:#000000;stroke-opacity:0;stroke-width:0.75;" x="550.425891" xlink:href="#med95b6e04b" y="405.742757"/>
     <use style="fill:#1f77b4;stroke:#000000;stroke-opacity:0;stroke-width:0.75;" x="565.794261" xlink:href="#med95b6e04b" y="404.769721"/>
     <use style="fill:#1f77b4;stroke:#000000;stroke-opacity:0;stroke-width:0.75;" x="581.162631" xlink:href="#med95b6e04b" y="404.737803"/>
     <use style="fill:#1f77b4;stroke:#000000;stroke-opacity:0;stroke-width:0.75;" x="596.531002" xlink:href="#med95b6e04b" y="400.33495"/>
     <use style="fill:#1f77b4;stroke:#000000;stroke-opacity:0;stroke-width:0.75;" x="611.899372" xlink:href="#med95b6e04b" y="395.32418"/>
     <use style="fill:#1f77b4;stroke:#000000;stroke-opacity:0;stroke-width:0.75;" x="627.267742" xlink:href="#med95b6e04b" y="393.040784"/>
     <use style="fill:#1f77b4;stroke:#000000;stroke-opacity:0;stroke-width:0.75;" x="642.636112" xlink:href="#med95b6e04b" y="402.380479"/>
     <use style="fill:#1f77b4;stroke:#000000;stroke-opacity:0;stroke-width:0.75;" x="658.004483" xlink:href="#med95b6e04b" y="400.537393"/>
     <use style="fill:#1f77b4;stroke:#000000;stroke-opacity:0;stroke-width:0.75;" x="673.372853" xlink:href="#med95b6e04b" y="403.328721"/>
     <use style="fill:#1f77b4;stroke:#000000;stroke-opacity:0;stroke-width:0.75;" x="688.741223" xlink:href="#med95b6e04b" y="399.410684"/>
     <use style="fill:#1f77b4;stroke:#000000;stroke-opacity:0;stroke-width:0.75;" x="704.109593" xlink:href="#med95b6e04b" y="398.616818"/>
     <use style="fill:#1f77b4;stroke:#000000;stroke-opacity:0;stroke-width:0.75;" x="719.477964" xlink:href="#med95b6e04b" y="403.602"/>
     <use style="fill:#1f77b4;stroke:#000000;stroke-opacity:0;stroke-width:0.75;" x="734.846334" xlink:href="#med95b6e04b" y="400.639978"/>
     <use style="fill:#1f77b4;stroke:#000000;stroke-opacity:0;stroke-width:0.75;" x="750.214704" xlink:href="#med95b6e04b" y="400.071617"/>
     <use style="fill:#1f77b4;stroke:#000000;stroke-opacity:0;stroke-width:0.75;" x="765.583075" xlink:href="#med95b6e04b" y="397.970681"/>
     <use style="fill:#1f77b4;stroke:#000000;stroke-opacity:0;stroke-width:0.75;" x="780.951445" xlink:href="#med95b6e04b" y="399.386687"/>
     <use style="fill:#1f77b4;stroke:#000000;stroke-opacity:0;stroke-width:0.75;" x="796.319815" xlink:href="#med95b6e04b" y="401.259832"/>
     <use style="fill:#1f77b4;stroke:#000000;stroke-opacity:0;stroke-width:0.75;" x="811.688185" xlink:href="#med95b6e04b" y="395.817321"/>
     <use style="fill:#1f77b4;stroke:#000000;stroke-opacity:0;stroke-width:0.75;" x="827.056556" xlink:href="#med95b6e04b" y="394.148307"/>
     <use style="fill:#1f77b4;stroke:#000000;stroke-opacity:0;stroke-width:0.75;" x="842.424926" xlink:href="#med95b6e04b" y="394.018019"/>
     <use style="fill:#1f77b4;stroke:#000000;stroke-opacity:0;stroke-width:0.75;" x="857.793296" xlink:href="#med95b6e04b" y="395.827767"/>
     <use style="fill:#1f77b4;stroke:#000000;stroke-opacity:0;stroke-width:0.75;" x="873.161666" xlink:href="#med95b6e04b" y="394.830879"/>
     <use style="fill:#1f77b4;stroke:#000000;stroke-opacity:0;stroke-width:0.75;" x="888.530037" xlink:href="#med95b6e04b" y="393.867362"/>
     <use style="fill:#1f77b4;stroke:#000000;stroke-opacity:0;stroke-width:0.75;" x="903.898407" xlink:href="#med95b6e04b" y="395.488998"/>
     <use style="fill:#1f77b4;stroke:#000000;stroke-opacity:0;stroke-width:0.75;" x="919.266777" xlink:href="#med95b6e04b" y="394.302673"/>
     <use style="fill:#1f77b4;stroke:#000000;stroke-opacity:0;stroke-width:0.75;" x="934.635147" xlink:href="#med95b6e04b" y="394.01972"/>
     <use style="fill:#1f77b4;stroke:#000000;stroke-opacity:0;stroke-width:0.75;" x="950.003518" xlink:href="#med95b6e04b" y="393.311429"/>
     <use style="fill:#1f77b4;stroke:#000000;stroke-opacity:0;stroke-width:0.75;" x="965.371888" xlink:href="#med95b6e04b" y="392.548659"/>
     <use style="fill:#1f77b4;stroke:#000000;stroke-opacity:0;stroke-width:0.75;" x="980.740258" xlink:href="#med95b6e04b" y="390.728102"/>
     <use style="fill:#1f77b4;stroke:#000000;stroke-opacity:0;stroke-width:0.75;" x="996.108628" xlink:href="#med95b6e04b" y="388.926679"/>
     <use style="fill:#1f77b4;stroke:#000000;stroke-opacity:0;stroke-width:0.75;" x="1011.476999" xlink:href="#med95b6e04b" y="388.770184"/>
     <use style="fill:#1f77b4;stroke:#000000;stroke-opacity:0;stroke-width:0.75;" x="1026.845369" xlink:href="#med95b6e04b" y="388.102915"/>
     <use style="fill:#1f77b4;stroke:#000000;stroke-opacity:0;stroke-width:0.75;" x="1042.213739" xlink:href="#med95b6e04b" y="389.347385"/>
     <use style="fill:#1f77b4;stroke:#000000;stroke-opacity:0;stroke-width:0.75;" x="1057.582109" xlink:href="#med95b6e04b" y="387.39158"/>
     <use style="fill:#1f77b4;stroke:#000000;stroke-opacity:0;stroke-width:0.75;" x="1072.95048" xlink:href="#med95b6e04b" y="386.594135"/>
     <use style="fill:#1f77b4;stroke:#000000;stroke-opacity:0;stroke-width:0.75;" x="1088.31885" xlink:href="#med95b6e04b" y="386.331562"/>
     <use style="fill:#1f77b4;stroke:#000000;stroke-opacity:0;stroke-width:0.75;" x="1103.68722" xlink:href="#med95b6e04b" y="383.913267"/>
     <use style="fill:#1f77b4;stroke:#000000;stroke-opacity:0;stroke-width:0.75;" x="1119.05559" xlink:href="#med95b6e04b" y="384.558883"/>
     <use style="fill:#1f77b4;stroke:#000000;stroke-opacity:0;stroke-width:0.75;" x="1134.423961" xlink:href="#med95b6e04b" y="382.950314"/>
     <use style="fill:#1f77b4;stroke:#000000;stroke-opacity:0;stroke-width:0.75;" x="1149.792331" xlink:href="#med95b6e04b" y="381.975213"/>
     <use style="fill:#1f77b4;stroke:#000000;stroke-opacity:0;stroke-width:0.75;" x="1165.160701" xlink:href="#med95b6e04b" y="381.629829"/>
     <use style="fill:#1f77b4;stroke:#000000;stroke-opacity:0;stroke-width:0.75;" x="1180.529071" xlink:href="#med95b6e04b" y="380.754286"/>
     <use style="fill:#1f77b4;stroke:#000000;stroke-opacity:0;stroke-width:0.75;" x="1195.897442" xlink:href="#med95b6e04b" y="381.563775"/>
     <use style="fill:#1f77b4;stroke:#000000;stroke-opacity:0;stroke-width:0.75;" x="1211.265812" xlink:href="#med95b6e04b" y="380.083805"/>
     <use style="fill:#1f77b4;stroke:#000000;stroke-opacity:0;stroke-width:0.75;" x="1226.634182" xlink:href="#med95b6e04b" y="378.750676"/>
     <use style="fill:#1f77b4;stroke:#000000;stroke-opacity:0;stroke-width:0.75;" x="1242.002552" xlink:href="#med95b6e04b" y="377.884286"/>
     <use style="fill:#1f77b4;stroke:#000000;stroke-opacity:0;stroke-width:0.75;" x="1257.370923" xlink:href="#med95b6e04b" y="378.078405"/>
     <use style="fill:#1f77b4;stroke:#000000;stroke-opacity:0;stroke-width:0.75;" x="1272.739293" xlink:href="#med95b6e04b" y="377.884046"/>
     <use style="fill:#1f77b4;stroke:#000000;stroke-opacity:0;stroke-width:0.75;" x="1288.107663" xlink:href="#med95b6e04b" y="376.987789"/>
     <use style="fill:#1f77b4;stroke:#000000;stroke-opacity:0;stroke-width:0.75;" x="1303.476034" xlink:href="#med95b6e04b" y="378.438885"/>
     <use style="fill:#1f77b4;stroke:#000000;stroke-opacity:0;stroke-width:0.75;" x="1318.844404" xlink:href="#med95b6e04b" y="378.872084"/>
     <use style="fill:#1f77b4;stroke:#000000;stroke-opacity:0;stroke-width:0.75;" x="1334.212774" xlink:href="#med95b6e04b" y="379.077974"/>
     <use style="fill:#1f77b4;stroke:#000000;stroke-opacity:0;stroke-width:0.75;" x="1349.581144" xlink:href="#med95b6e04b" y="379.542578"/>
     <use style="fill:#1f77b4;stroke:#000000;stroke-opacity:0;stroke-width:0.75;" x="1364.949515" xlink:href="#med95b6e04b" y="379.292258"/>
     <use style="fill:#1f77b4;stroke:#000000;stroke-opacity:0;stroke-width:0.75;" x="1380.317885" xlink:href="#med95b6e04b" y="380.233419"/>
     <use style="fill:#1f77b4;stroke:#000000;stroke-opacity:0;stroke-width:0.75;" x="1395.686255" xlink:href="#med95b6e04b" y="380.956896"/>
    </g>
   </g>
   <g id="line2d_2">
    <path clip-path="url(#p360e8ff6e6)" d="M 470.817733 467.59 
L 1413.820932 467.59 
" style="fill:none;stroke:#000000;stroke-dasharray:7.4,3.2;stroke-dashoffset:0;stroke-width:2;"/>
   </g>
   <g id="patch_3">
    <path d="M 470.817733 549.15 
L 470.817733 141.35 
" style="fill:none;stroke:#262626;stroke-linecap:square;stroke-linejoin:miter;stroke-width:2;"/>
   </g>
   <g id="patch_4">
    <path d="M 470.817733 549.15 
L 1413.820932 549.15 
" style="fill:none;stroke:#262626;stroke-linecap:square;stroke-linejoin:miter;stroke-width:2;"/>
   </g>
  </g>
  <g id="axes_2">
   <g id="patch_5">
    <path d="M 115.55 668.2 
L 348.017733 668.2 
L 348.017733 22.3 
L 115.55 22.3 
z
" style="fill:#ffffff;"/>
   </g>
   <g id="matplotlib.axis_3">
    <g id="xtick_9"/>
    <g id="text_16">
     <!-- Average -->
     <g style="fill:#262626;" transform="translate(173.593866 702.17)scale(0.32 -0.32)">
      <defs>
       <path d="M 2816 1888 
L 2138 3909 
L 2125 3909 
L 1388 1888 
L 2816 1888 
z
M 1197 1338 
L 716 0 
L 78 0 
L 1806 4594 
L 2509 4594 
L 4172 0 
L 3494 0 
L 3041 1338 
L 1197 1338 
z
" id="HelveticaWorld-Regular-41" transform="scale(0.015625)"/>
       <path d="M 2522 3347 
L 3138 3347 
L 1863 0 
L 1259 0 
L 38 3347 
L 691 3347 
L 1563 622 
L 1575 622 
L 2522 3347 
z
" id="HelveticaWorld-Regular-76" transform="scale(0.015625)"/>
       <path d="M 831 1684 
Q 831 1069 1075 730 
Q 1319 391 1734 391 
Q 2138 391 2394 684 
Q 2650 978 2650 1516 
Q 2650 2222 2426 2580 
Q 2203 2938 1747 2938 
Q 1288 2938 1059 2633 
Q 831 2328 831 1684 
z
M 3188 191 
Q 3188 -616 2800 -1012 
Q 2413 -1409 1631 -1409 
Q 1069 -1409 736 -1150 
Q 403 -891 353 -409 
L 916 -409 
Q 959 -653 1142 -797 
Q 1325 -941 1672 -941 
Q 2144 -941 2384 -687 
Q 2625 -434 2625 134 
L 2625 372 
L 2613 372 
Q 2297 -97 1722 -97 
Q 1006 -97 628 431 
Q 250 959 250 1772 
Q 250 2516 631 2980 
Q 1013 3444 1644 3444 
Q 2278 3444 2644 2875 
L 2656 2875 
L 2656 3347 
L 3188 3347 
L 3188 191 
z
" id="HelveticaWorld-Regular-67" transform="scale(0.015625)"/>
      </defs>
      <use xlink:href="#HelveticaWorld-Regular-41"/>
      <use x="62.824219" xlink:href="#HelveticaWorld-Regular-76"/>
      <use x="110.433594" xlink:href="#HelveticaWorld-Regular-65"/>
      <use x="165.853516" xlink:href="#HelveticaWorld-Regular-72"/>
      <use x="197.421875" xlink:href="#HelveticaWorld-Regular-61"/>
      <use x="252.353516" xlink:href="#HelveticaWorld-Regular-67"/>
      <use x="308.261719" xlink:href="#HelveticaWorld-Regular-65"/>
     </g>
    </g>
   </g>
   <g id="matplotlib.axis_4">
    <g id="ytick_6">
     <g id="text_17">
      <!-- −0.8 -->
      <g style="fill:#262626;" transform="translate(45.32 679.685)scale(0.32 -0.32)">
       <defs>
        <path d="M 1766 2597 
Q 2113 2597 2339 2795 
Q 2566 2994 2566 3322 
Q 2566 3616 2348 3805 
Q 2131 3994 1728 3994 
Q 1369 3994 1173 3795 
Q 978 3597 978 3291 
Q 978 2963 1222 2780 
Q 1466 2597 1766 2597 
z
M 1772 2113 
Q 1338 2113 1091 1872 
Q 844 1631 844 1281 
Q 844 878 1094 631 
Q 1344 384 1806 384 
Q 2216 384 2461 631 
Q 2706 878 2706 1288 
Q 2706 1638 2461 1875 
Q 2216 2113 1772 2113 
z
M 3150 3341 
Q 3150 2663 2572 2394 
Q 2969 2216 3139 1923 
Q 3309 1631 3309 1300 
Q 3309 659 2896 268 
Q 2484 -122 1784 -122 
Q 1172 -122 708 214 
Q 244 550 244 1306 
Q 244 2069 1006 2388 
Q 397 2631 397 3263 
Q 397 3794 758 4147 
Q 1119 4500 1759 4500 
Q 2400 4500 2775 4167 
Q 3150 3834 3150 3341 
z
" id="HelveticaWorld-Regular-38" transform="scale(0.015625)"/>
       </defs>
       <use xlink:href="#HelveticaWorld-Regular-2212"/>
       <use x="58.59375" xlink:href="#HelveticaWorld-Regular-30"/>
       <use x="114.208984" xlink:href="#HelveticaWorld-Regular-2e"/>
       <use x="141.992188" xlink:href="#HelveticaWorld-Regular-38"/>
      </g>
     </g>
    </g>
    <g id="ytick_7">
     <g id="text_18">
      <!-- −0.6 -->
      <g style="fill:#262626;" transform="translate(45.32 598.9475)scale(0.32 -0.32)">
       <use xlink:href="#HelveticaWorld-Regular-2212"/>
       <use x="58.59375" xlink:href="#HelveticaWorld-Regular-30"/>
       <use x="114.208984" xlink:href="#HelveticaWorld-Regular-2e"/>
       <use x="141.992188" xlink:href="#HelveticaWorld-Regular-36"/>
      </g>
     </g>
    </g>
    <g id="ytick_8">
     <g id="text_19">
      <!-- −0.4 -->
      <g style="fill:#262626;" transform="translate(45.32 518.21)scale(0.32 -0.32)">
       <use xlink:href="#HelveticaWorld-Regular-2212"/>
       <use x="58.59375" xlink:href="#HelveticaWorld-Regular-30"/>
       <use x="114.208984" xlink:href="#HelveticaWorld-Regular-2e"/>
       <use x="141.992188" xlink:href="#HelveticaWorld-Regular-34"/>
      </g>
     </g>
    </g>
    <g id="ytick_9">
     <g id="text_20">
      <!-- −0.2 -->
      <g style="fill:#262626;" transform="translate(45.32 437.4725)scale(0.32 -0.32)">
       <use xlink:href="#HelveticaWorld-Regular-2212"/>
       <use x="58.59375" xlink:href="#HelveticaWorld-Regular-30"/>
       <use x="114.208984" xlink:href="#HelveticaWorld-Regular-2e"/>
       <use x="141.992188" xlink:href="#HelveticaWorld-Regular-32"/>
      </g>
     </g>
    </g>
    <g id="ytick_10">
     <g id="text_21">
      <!-- 0.0 -->
      <g style="fill:#262626;" transform="translate(64.07 356.735)scale(0.32 -0.32)">
       <use xlink:href="#HelveticaWorld-Regular-30"/>
       <use x="55.615234" xlink:href="#HelveticaWorld-Regular-2e"/>
       <use x="83.398438" xlink:href="#HelveticaWorld-Regular-30"/>
      </g>
     </g>
    </g>
    <g id="ytick_11">
     <g id="text_22">
      <!-- 0.2 -->
      <g style="fill:#262626;" transform="translate(64.07 275.9975)scale(0.32 -0.32)">
       <use xlink:href="#HelveticaWorld-Regular-30"/>
       <use x="55.615234" xlink:href="#HelveticaWorld-Regular-2e"/>
       <use x="83.398438" xlink:href="#HelveticaWorld-Regular-32"/>
      </g>
     </g>
    </g>
    <g id="ytick_12">
     <g id="text_23">
      <!-- 0.4 -->
      <g style="fill:#262626;" transform="translate(64.07 195.26)scale(0.32 -0.32)">
       <use xlink:href="#HelveticaWorld-Regular-30"/>
       <use x="55.615234" xlink:href="#HelveticaWorld-Regular-2e"/>
       <use x="83.398438" xlink:href="#HelveticaWorld-Regular-34"/>
      </g>
     </g>
    </g>
    <g id="ytick_13">
     <g id="text_24">
      <!-- 0.6 -->
      <g style="fill:#262626;" transform="translate(64.07 114.5225)scale(0.32 -0.32)">
       <use xlink:href="#HelveticaWorld-Regular-30"/>
       <use x="55.615234" xlink:href="#HelveticaWorld-Regular-2e"/>
       <use x="83.398438" xlink:href="#HelveticaWorld-Regular-36"/>
      </g>
     </g>
    </g>
    <g id="ytick_14">
     <g id="text_25">
      <!-- 0.8 -->
      <g style="fill:#262626;" transform="translate(64.07 33.785)scale(0.32 -0.32)">
       <use xlink:href="#HelveticaWorld-Regular-30"/>
       <use x="55.615234" xlink:href="#HelveticaWorld-Regular-2e"/>
       <use x="83.398438" xlink:href="#HelveticaWorld-Regular-38"/>
      </g>
     </g>
    </g>
    <g id="text_26">
     <!-- Classifier Information (a.u.) -->
     <g style="fill:#262626;" transform="translate(34.695 534.615)rotate(-90)scale(0.32 -0.32)">
      <use xlink:href="#HelveticaWorld-Regular-43"/>
      <use x="72.314453" xlink:href="#HelveticaWorld-Regular-6c"/>
      <use x="94.335938" xlink:href="#HelveticaWorld-Regular-61"/>
      <use x="149.267578" xlink:href="#HelveticaWorld-Regular-73"/>
      <use x="199.267578" xlink:href="#HelveticaWorld-Regular-73"/>
      <use x="249.267578" xlink:href="#HelveticaWorld-Regular-69"/>
      <use x="271.289062" xlink:href="#HelveticaWorld-Regular-66"/>
      <use x="298.974609" xlink:href="#HelveticaWorld-Regular-69"/>
      <use x="320.996094" xlink:href="#HelveticaWorld-Regular-65"/>
      <use x="376.416016" xlink:href="#HelveticaWorld-Regular-72"/>
      <use x="408.984375" xlink:href="#HelveticaWorld-Regular-20"/>
      <use x="433.398438" xlink:href="#HelveticaWorld-Regular-49"/>
      <use x="459.179688" xlink:href="#HelveticaWorld-Regular-6e"/>
      <use x="514.355469" xlink:href="#HelveticaWorld-Regular-66"/>
      <use x="540.041016" xlink:href="#HelveticaWorld-Regular-6f"/>
      <use x="595.949219" xlink:href="#HelveticaWorld-Regular-72"/>
      <use x="628.517578" xlink:href="#HelveticaWorld-Regular-6d"/>
      <use x="711.525391" xlink:href="#HelveticaWorld-Regular-61"/>
      <use x="766.457031" xlink:href="#HelveticaWorld-Regular-74"/>
      <use x="794.142578" xlink:href="#HelveticaWorld-Regular-69"/>
      <use x="816.164062" xlink:href="#HelveticaWorld-Regular-6f"/>
      <use x="872.072266" xlink:href="#HelveticaWorld-Regular-6e"/>
      <use x="927.248047" xlink:href="#HelveticaWorld-Regular-20"/>
      <use x="951.662109" xlink:href="#HelveticaWorld-Regular-28"/>
      <use x="984.962891" xlink:href="#HelveticaWorld-Regular-61"/>
      <use x="1039.894531" xlink:href="#HelveticaWorld-Regular-2e"/>
      <use x="1067.677734" xlink:href="#HelveticaWorld-Regular-75"/>
      <use x="1122.462891" xlink:href="#HelveticaWorld-Regular-2e"/>
      <use x="1150.246094" xlink:href="#HelveticaWorld-Regular-29"/>
     </g>
    </g>
   </g>
   <g id="PolyCollection_2">
    <defs>
     <path d="M 209.53815 -209.606862 
L 208.76609 -209.606862 
L 208.497664 -213.220669 
L 208.167634 -216.834477 
L 207.773341 -220.448284 
L 207.31581 -224.062091 
L 206.800381 -227.675899 
L 206.236849 -231.289706 
L 205.638975 -234.903513 
L 205.023264 -238.517321 
L 204.407072 -242.131128 
L 203.8062 -245.744936 
L 203.232253 -249.358743 
L 202.690123 -252.97255 
L 202.17597 -256.586358 
L 201.675993 -260.200165 
L 201.166196 -263.813972 
L 200.613206 -267.42778 
L 199.976034 -271.041587 
L 199.208608 -274.655395 
L 198.262831 -278.269202 
L 197.091957 -281.883009 
L 195.654105 -285.496817 
L 193.915803 -289.110624 
L 191.855464 -292.724431 
L 189.466669 -296.338239 
L 186.76103 -299.952046 
L 183.770302 -303.565853 
L 180.547328 -307.179661 
L 177.165325 -310.793468 
L 173.715179 -314.407276 
L 170.300519 -318.021083 
L 167.030731 -321.63489 
L 164.012342 -325.248698 
L 161.339562 -328.862505 
L 159.085015 -332.476312 
L 157.291747 -336.09012 
L 155.967581 -339.703927 
L 155.082595 -343.317734 
L 154.570221 -346.931542 
L 154.331972 -350.545349 
L 154.24542 -354.159157 
L 154.174661 -357.772964 
L 153.982209 -361.386771 
L 153.541176 -365.000579 
L 152.746548 -368.614386 
L 151.5246 -372.228193 
L 149.839683 -375.842001 
L 147.698012 -379.455808 
L 145.148337 -383.069615 
L 142.279706 -386.683423 
L 139.21664 -390.29723 
L 136.112145 -393.911038 
L 133.138983 -397.524845 
L 130.479563 -401.138652 
L 128.314861 -404.75246 
L 126.812804 -408.366267 
L 126.116715 -411.980074 
L 126.334611 -415.593882 
L 127.530267 -419.207689 
L 129.717044 -422.821497 
L 132.855332 -426.435304 
L 136.854168 -430.049111 
L 141.577106 -433.662919 
L 146.851871 -437.276726 
L 152.482817 -440.890533 
L 158.264829 -444.504341 
L 163.997182 -448.118148 
L 169.495939 -451.731955 
L 174.603848 -455.345763 
L 179.19711 -458.95957 
L 183.188903 -462.573378 
L 186.529981 -466.187185 
L 189.206899 -469.800992 
L 191.238569 -473.4148 
L 192.67176 -477.028607 
L 193.57603 -480.642414 
L 194.038366 -484.256222 
L 194.157686 -487.870029 
L 194.039232 -491.483836 
L 193.788908 -495.097644 
L 193.507668 -498.711451 
L 193.286178 -502.325259 
L 193.200063 -505.939066 
L 193.306114 -509.552873 
L 193.639832 -513.166681 
L 194.214587 -516.780488 
L 195.022507 -520.394295 
L 196.03706 -524.008103 
L 197.217026 -527.62191 
L 198.511438 -531.235718 
L 199.864927 -534.849525 
L 201.222891 -538.463332 
L 202.535954 -542.07714 
L 203.763327 -545.690947 
L 204.87484 -549.304754 
L 205.851634 -552.918562 
L 206.685639 -556.532369 
L 207.378129 -560.146176 
L 207.937696 -563.759984 
L 208.377975 -567.373791 
L 209.53815 -567.373791 
L 209.53815 -567.373791 
L 209.53815 -563.759984 
L 209.53815 -560.146176 
L 209.53815 -556.532369 
L 209.53815 -552.918562 
L 209.53815 -549.304754 
L 209.53815 -545.690947 
L 209.53815 -542.07714 
L 209.53815 -538.463332 
L 209.53815 -534.849525 
L 209.53815 -531.235718 
L 209.53815 -527.62191 
L 209.53815 -524.008103 
L 209.53815 -520.394295 
L 209.53815 -516.780488 
L 209.53815 -513.166681 
L 209.53815 -509.552873 
L 209.53815 -505.939066 
L 209.53815 -502.325259 
L 209.53815 -498.711451 
L 209.53815 -495.097644 
L 209.53815 -491.483836 
L 209.53815 -487.870029 
L 209.53815 -484.256222 
L 209.53815 -480.642414 
L 209.53815 -477.028607 
L 209.53815 -473.4148 
L 209.53815 -469.800992 
L 209.53815 -466.187185 
L 209.53815 -462.573378 
L 209.53815 -458.95957 
L 209.53815 -455.345763 
L 209.53815 -451.731955 
L 209.53815 -448.118148 
L 209.53815 -444.504341 
L 209.53815 -440.890533 
L 209.53815 -437.276726 
L 209.53815 -433.662919 
L 209.53815 -430.049111 
L 209.53815 -426.435304 
L 209.53815 -422.821497 
L 209.53815 -419.207689 
L 209.53815 -415.593882 
L 209.53815 -411.980074 
L 209.53815 -408.366267 
L 209.53815 -404.75246 
L 209.53815 -401.138652 
L 209.53815 -397.524845 
L 209.53815 -393.911038 
L 209.53815 -390.29723 
L 209.53815 -386.683423 
L 209.53815 -383.069615 
L 209.53815 -379.455808 
L 209.53815 -375.842001 
L 209.53815 -372.228193 
L 209.53815 -368.614386 
L 209.53815 -365.000579 
L 209.53815 -361.386771 
L 209.53815 -357.772964 
L 209.53815 -354.159157 
L 209.53815 -350.545349 
L 209.53815 -346.931542 
L 209.53815 -343.317734 
L 209.53815 -339.703927 
L 209.53815 -336.09012 
L 209.53815 -332.476312 
L 209.53815 -328.862505 
L 209.53815 -325.248698 
L 209.53815 -321.63489 
L 209.53815 -318.021083 
L 209.53815 -314.407276 
L 209.53815 -310.793468 
L 209.53815 -307.179661 
L 209.53815 -303.565853 
L 209.53815 -299.952046 
L 209.53815 -296.338239 
L 209.53815 -292.724431 
L 209.53815 -289.110624 
L 209.53815 -285.496817 
L 209.53815 -281.883009 
L 209.53815 -278.269202 
L 209.53815 -274.655395 
L 209.53815 -271.041587 
L 209.53815 -267.42778 
L 209.53815 -263.813972 
L 209.53815 -260.200165 
L 209.53815 -256.586358 
L 209.53815 -252.97255 
L 209.53815 -249.358743 
L 209.53815 -245.744936 
L 209.53815 -242.131128 
L 209.53815 -238.517321 
L 209.53815 -234.903513 
L 209.53815 -231.289706 
L 209.53815 -227.675899 
L 209.53815 -224.062091 
L 209.53815 -220.448284 
L 209.53815 -216.834477 
L 209.53815 -213.220669 
L 209.53815 -209.606862 
z
" id="m3faf7da398" style="stroke:#7a7a7a;stroke-width:1.5;"/>
    </defs>
    <g clip-path="url(#p4b6e02a014)">
     <use style="fill:#cccccc;stroke:#7a7a7a;stroke-width:1.5;" x="0" xlink:href="#m3faf7da398" y="720"/>
    </g>
   </g>
   <g id="PolyCollection_3">
    <defs>
     <path d="M 209.53815 -372.228193 
L 151.5246 -372.228193 
L 149.839683 -375.842001 
L 147.698012 -379.455808 
L 145.148337 -383.069615 
L 142.279706 -386.683423 
L 139.21664 -390.29723 
L 136.112145 -393.911038 
L 133.138983 -397.524845 
L 128.314861 -404.75246 
L 126.812804 -408.366267 
L 126.116715 -411.980074 
L 209.53815 -411.980074 
L 209.53815 -411.980074 
L 209.53815 -408.366267 
L 209.53815 -404.75246 
L 209.53815 -397.524845 
L 209.53815 -393.911038 
L 209.53815 -390.29723 
L 209.53815 -386.683423 
L 209.53815 -383.069615 
L 209.53815 -379.455808 
L 209.53815 -375.842001 
L 209.53815 -372.228193 
z
" id="m04a3a009b2" style="stroke:#666666;stroke-width:1.5;"/>
    </defs>
    <g clip-path="url(#p4b6e02a014)">
     <use style="fill:#8f8f8f;stroke:#666666;stroke-width:1.5;" x="0" xlink:href="#m04a3a009b2" y="720"/>
    </g>
   </g>
   <g id="PolyCollection_4">
    <defs>
     <path d="M 254.029583 -239.382856 
L 255.257778 -239.382856 
L 255.678822 -242.542099 
L 256.209439 -245.701342 
L 256.86625 -248.860586 
L 257.664897 -252.019829 
L 258.618974 -255.179072 
L 259.73891 -258.338315 
L 261.030915 -261.497559 
L 262.496115 -264.656802 
L 264.12998 -267.816045 
L 265.922164 -270.975288 
L 267.856824 -274.134532 
L 269.913444 -277.293775 
L 272.068128 -280.453018 
L 274.295281 -283.612261 
L 276.569508 -286.771505 
L 278.86755 -289.930748 
L 281.170048 -293.089991 
L 283.462919 -296.249234 
L 285.738176 -299.408478 
L 287.994103 -302.567721 
L 290.234762 -305.726964 
L 292.468882 -308.886208 
L 294.708306 -312.045451 
L 296.966169 -315.204694 
L 299.255037 -318.363937 
L 301.585207 -321.523181 
L 303.963303 -324.682424 
L 306.391277 -327.841667 
L 308.865796 -331.00091 
L 311.377992 -334.160154 
L 313.913497 -337.319397 
L 316.452707 -340.47864 
L 318.971243 -343.637883 
L 321.440623 -346.797127 
L 323.829218 -349.95637 
L 326.103536 -353.115613 
L 328.229883 -356.274856 
L 330.176349 -359.4341 
L 331.914979 -362.593343 
L 333.423884 -365.752586 
L 334.688971 -368.911829 
L 335.704952 -372.071073 
L 336.475373 -375.230316 
L 337.011513 -378.389559 
L 337.33023 -381.548802 
L 337.451018 -384.708046 
L 337.392722 -387.867289 
L 337.170475 -391.026532 
L 336.79339 -394.185775 
L 336.26344 -397.345019 
L 335.575722 -400.504262 
L 334.720061 -403.663505 
L 333.683615 -406.822748 
L 332.453979 -409.981992 
L 331.022201 -413.141235 
L 329.385149 -416.300478 
L 327.546875 -419.459721 
L 325.518817 -422.618965 
L 323.318983 -425.778208 
L 320.970429 -428.937451 
L 318.499498 -432.096695 
L 315.934259 -435.255938 
L 313.303468 -438.415181 
L 310.636206 -441.574424 
L 307.962083 -444.733668 
L 305.311738 -447.892911 
L 302.717241 -451.052154 
L 300.212007 -454.211397 
L 297.829905 -457.370641 
L 295.603474 -460.529884 
L 293.561344 -463.689127 
L 291.725177 -466.84837 
L 290.106612 -470.007614 
L 288.704743 -473.166857 
L 287.50463 -476.3261 
L 286.477207 -479.485343 
L 285.580751 -482.644587 
L 284.763865 -485.80383 
L 283.969666 -488.963073 
L 283.140745 -492.122316 
L 282.224308 -495.28156 
L 281.17692 -498.440803 
L 279.968304 -501.600046 
L 278.583798 -504.759289 
L 277.025225 -507.918533 
L 275.310154 -511.077776 
L 273.469704 -514.237019 
L 271.545216 -517.396262 
L 269.584224 -520.555506 
L 267.636192 -523.714749 
L 265.748495 -526.873992 
L 263.963006 -530.033235 
L 262.313584 -533.192479 
L 260.824577 -536.351722 
L 259.510366 -539.510965 
L 258.375814 -542.670208 
L 257.41743 -545.829452 
L 256.625016 -548.988695 
L 255.983534 -552.147938 
L 254.029583 -552.147938 
L 254.029583 -552.147938 
L 254.029583 -548.988695 
L 254.029583 -545.829452 
L 254.029583 -542.670208 
L 254.029583 -539.510965 
L 254.029583 -536.351722 
L 254.029583 -533.192479 
L 254.029583 -530.033235 
L 254.029583 -526.873992 
L 254.029583 -523.714749 
L 254.029583 -520.555506 
L 254.029583 -517.396262 
L 254.029583 -514.237019 
L 254.029583 -511.077776 
L 254.029583 -507.918533 
L 254.029583 -504.759289 
L 254.029583 -501.600046 
L 254.029583 -498.440803 
L 254.029583 -495.28156 
L 254.029583 -492.122316 
L 254.029583 -488.963073 
L 254.029583 -485.80383 
L 254.029583 -482.644587 
L 254.029583 -479.485343 
L 254.029583 -476.3261 
L 254.029583 -473.166857 
L 254.029583 -470.007614 
L 254.029583 -466.84837 
L 254.029583 -463.689127 
L 254.029583 -460.529884 
L 254.029583 -457.370641 
L 254.029583 -454.211397 
L 254.029583 -451.052154 
L 254.029583 -447.892911 
L 254.029583 -444.733668 
L 254.029583 -441.574424 
L 254.029583 -438.415181 
L 254.029583 -435.255938 
L 254.029583 -432.096695 
L 254.029583 -428.937451 
L 254.029583 -425.778208 
L 254.029583 -422.618965 
L 254.029583 -419.459721 
L 254.029583 -416.300478 
L 254.029583 -413.141235 
L 254.029583 -409.981992 
L 254.029583 -406.822748 
L 254.029583 -403.663505 
L 254.029583 -400.504262 
L 254.029583 -397.345019 
L 254.029583 -394.185775 
L 254.029583 -391.026532 
L 254.029583 -387.867289 
L 254.029583 -384.708046 
L 254.029583 -381.548802 
L 254.029583 -378.389559 
L 254.029583 -375.230316 
L 254.029583 -372.071073 
L 254.029583 -368.911829 
L 254.029583 -365.752586 
L 254.029583 -362.593343 
L 254.029583 -359.4341 
L 254.029583 -356.274856 
L 254.029583 -353.115613 
L 254.029583 -349.95637 
L 254.029583 -346.797127 
L 254.029583 -343.637883 
L 254.029583 -340.47864 
L 254.029583 -337.319397 
L 254.029583 -334.160154 
L 254.029583 -331.00091 
L 254.029583 -327.841667 
L 254.029583 -324.682424 
L 254.029583 -321.523181 
L 254.029583 -318.363937 
L 254.029583 -315.204694 
L 254.029583 -312.045451 
L 254.029583 -308.886208 
L 254.029583 -305.726964 
L 254.029583 -302.567721 
L 254.029583 -299.408478 
L 254.029583 -296.249234 
L 254.029583 -293.089991 
L 254.029583 -289.930748 
L 254.029583 -286.771505 
L 254.029583 -283.612261 
L 254.029583 -280.453018 
L 254.029583 -277.293775 
L 254.029583 -274.134532 
L 254.029583 -270.975288 
L 254.029583 -267.816045 
L 254.029583 -264.656802 
L 254.029583 -261.497559 
L 254.029583 -258.338315 
L 254.029583 -255.179072 
L 254.029583 -252.019829 
L 254.029583 -248.860586 
L 254.029583 -245.701342 
L 254.029583 -242.542099 
L 254.029583 -239.382856 
z
" id="m87191eeaab" style="stroke:#7a7a7a;stroke-width:1.5;"/>
    </defs>
    <g clip-path="url(#p4b6e02a014)">
     <use style="fill:#cccccc;stroke:#7a7a7a;stroke-width:1.5;" x="0" xlink:href="#m87191eeaab" y="720"/>
    </g>
   </g>
   <g id="PolyCollection_5">
    <defs>
     <path d="M 254.029583 -375.230316 
L 336.475373 -375.230316 
L 337.011513 -378.389559 
L 337.33023 -381.548802 
L 337.392722 -387.867289 
L 337.170475 -391.026532 
L 336.79339 -394.185775 
L 335.575722 -400.504262 
L 334.720061 -403.663505 
L 333.683615 -406.822748 
L 332.453979 -409.981992 
L 254.029583 -409.981992 
L 254.029583 -409.981992 
L 254.029583 -406.822748 
L 254.029583 -403.663505 
L 254.029583 -400.504262 
L 254.029583 -394.185775 
L 254.029583 -391.026532 
L 254.029583 -387.867289 
L 254.029583 -381.548802 
L 254.029583 -378.389559 
L 254.029583 -375.230316 
z
" id="m751fbfdce7" style="stroke:#666666;stroke-width:1.5;"/>
    </defs>
    <g clip-path="url(#p4b6e02a014)">
     <use style="fill:#8f8f8f;stroke:#666666;stroke-width:1.5;" x="0" xlink:href="#m751fbfdce7" y="720"/>
    </g>
   </g>
   <g id="PathCollection_16">
    <defs>
     <path d="M 0 3 
C 0.795609 3 1.55874 2.683901 2.12132 2.12132 
C 2.683901 1.55874 3 0.795609 3 0 
C 3 -0.795609 2.683901 -1.55874 2.12132 -2.12132 
C 1.55874 -2.683901 0.795609 -3 0 -3 
C -0.795609 -3 -1.55874 -2.683901 -2.12132 -2.12132 
C -2.683901 -1.55874 -3 -0.795609 -3 0 
C -3 0.795609 -2.683901 1.55874 -2.12132 2.12132 
C -1.55874 2.683901 -0.795609 3 0 3 
z
" id="m817935a9e3" style="stroke:#000000;stroke-opacity:0.3;"/>
    </defs>
    <g clip-path="url(#p4b6e02a014)">
     <use style="fill-opacity:0.3;stroke:#000000;stroke-opacity:0.3;" x="151.593354" xlink:href="#m817935a9e3" y="304.99905"/>
     <use style="fill-opacity:0.3;stroke:#000000;stroke-opacity:0.3;" x="190.035054" xlink:href="#m817935a9e3" y="396.877097"/>
     <use style="fill-opacity:0.3;stroke:#000000;stroke-opacity:0.3;" x="195.564901" xlink:href="#m817935a9e3" y="223.198733"/>
     <use style="fill-opacity:0.3;stroke:#000000;stroke-opacity:0.3;" x="198.406001" xlink:href="#m817935a9e3" y="289.687401"/>
     <use style="fill-opacity:0.3;stroke:#000000;stroke-opacity:0.3;" x="179.083223" xlink:href="#m817935a9e3" y="385.704436"/>
     <use style="fill-opacity:0.3;stroke:#000000;stroke-opacity:0.3;" x="193.155095" xlink:href="#m817935a9e3" y="285.567276"/>
     <use style="fill-opacity:0.3;stroke:#000000;stroke-opacity:0.3;" x="202.780594" xlink:href="#m817935a9e3" y="208.558356"/>
     <use style="fill-opacity:0.3;stroke:#000000;stroke-opacity:0.3;" x="194.471335" xlink:href="#m817935a9e3" y="367.477176"/>
     <use style="fill-opacity:0.3;stroke:#000000;stroke-opacity:0.3;" x="165.847298" xlink:href="#m817935a9e3" y="324.832723"/>
     <use style="fill-opacity:0.3;stroke:#000000;stroke-opacity:0.3;" x="186.296637" xlink:href="#m817935a9e3" y="284.301508"/>
     <use style="fill-opacity:0.3;stroke:#000000;stroke-opacity:0.3;" x="160.12807" xlink:href="#m817935a9e3" y="323.443244"/>
     <use style="fill-opacity:0.3;stroke:#000000;stroke-opacity:0.3;" x="158.450982" xlink:href="#m817935a9e3" y="325.249892"/>
     <use style="fill-opacity:0.3;stroke:#000000;stroke-opacity:0.3;" x="200.916196" xlink:href="#m817935a9e3" y="364.509208"/>
     <use style="fill-opacity:0.3;stroke:#000000;stroke-opacity:0.3;" x="183.630273" xlink:href="#m817935a9e3" y="377.177511"/>
     <use style="fill-opacity:0.3;stroke:#000000;stroke-opacity:0.3;" x="188.398677" xlink:href="#m817935a9e3" y="299.879622"/>
     <use style="fill-opacity:0.3;stroke:#000000;stroke-opacity:0.3;" x="163.515861" xlink:href="#m817935a9e3" y="325.977113"/>
     <use style="fill-opacity:0.3;stroke:#000000;stroke-opacity:0.3;" x="148.300963" xlink:href="#m817935a9e3" y="341.983783"/>
     <use style="fill-opacity:0.3;stroke:#000000;stroke-opacity:0.3;" x="181.4144" xlink:href="#m817935a9e3" y="300.97881"/>
     <use style="fill-opacity:0.3;stroke:#000000;stroke-opacity:0.3;" x="203.11581" xlink:href="#m817935a9e3" y="463.402311"/>
     <use style="fill-opacity:0.3;stroke:#000000;stroke-opacity:0.3;" x="203.79411" xlink:href="#m817935a9e3" y="306.319902"/>
     <use style="fill-opacity:0.3;stroke:#000000;stroke-opacity:0.3;" x="192.435618" xlink:href="#m817935a9e3" y="262.487149"/>
     <use style="fill-opacity:0.3;stroke:#000000;stroke-opacity:0.3;" x="201.642117" xlink:href="#m817935a9e3" y="424.003835"/>
     <use style="fill-opacity:0.3;stroke:#000000;stroke-opacity:0.3;" x="189.745183" xlink:href="#m817935a9e3" y="334.446472"/>
     <use style="fill-opacity:0.3;stroke:#000000;stroke-opacity:0.3;" x="167.33888" xlink:href="#m817935a9e3" y="305.372558"/>
     <use style="fill-opacity:0.3;stroke:#000000;stroke-opacity:0.3;" x="201.154271" xlink:href="#m817935a9e3" y="295.137927"/>
     <use style="fill-opacity:0.3;stroke:#000000;stroke-opacity:0.3;" x="180.461196" xlink:href="#m817935a9e3" y="355.650294"/>
     <use style="fill-opacity:0.3;stroke:#000000;stroke-opacity:0.3;" x="200.693271" xlink:href="#m817935a9e3" y="372.797862"/>
     <use style="fill-opacity:0.3;stroke:#000000;stroke-opacity:0.3;" x="204.590473" xlink:href="#m817935a9e3" y="389.032429"/>
     <use style="fill-opacity:0.3;stroke:#000000;stroke-opacity:0.3;" x="208.511399" xlink:href="#m817935a9e3" y="288.435612"/>
     <use style="fill-opacity:0.3;stroke:#000000;stroke-opacity:0.3;" x="170.981314" xlink:href="#m817935a9e3" y="385.264512"/>
     <use style="fill-opacity:0.3;stroke:#000000;stroke-opacity:0.3;" x="200.590752" xlink:href="#m817935a9e3" y="199.617035"/>
     <use style="fill-opacity:0.3;stroke:#000000;stroke-opacity:0.3;" x="154.267243" xlink:href="#m817935a9e3" y="299.860907"/>
     <use style="fill-opacity:0.3;stroke:#000000;stroke-opacity:0.3;" x="167.899171" xlink:href="#m817935a9e3" y="311.586427"/>
     <use style="fill-opacity:0.3;stroke:#000000;stroke-opacity:0.3;" x="174.5668" xlink:href="#m817935a9e3" y="398.383228"/>
    </g>
   </g>
   <g id="PathCollection_17">
    <g clip-path="url(#p4b6e02a014)">
     <use style="fill-opacity:0.3;stroke:#000000;stroke-opacity:0.3;" x="304.032955" xlink:href="#m817935a9e3" y="345.066998"/>
     <use style="fill-opacity:0.3;stroke:#000000;stroke-opacity:0.3;" x="291.239199" xlink:href="#m817935a9e3" y="312.283869"/>
     <use style="fill-opacity:0.3;stroke:#000000;stroke-opacity:0.3;" x="254.049883" xlink:href="#m817935a9e3" y="275.608635"/>
     <use style="fill-opacity:0.3;stroke:#000000;stroke-opacity:0.3;" x="317.913035" xlink:href="#m817935a9e3" y="371.777739"/>
     <use style="fill-opacity:0.3;stroke:#000000;stroke-opacity:0.3;" x="280.293284" xlink:href="#m817935a9e3" y="334.565567"/>
     <use style="fill-opacity:0.3;stroke:#000000;stroke-opacity:0.3;" x="268.960132" xlink:href="#m817935a9e3" y="434.444674"/>
     <use style="fill-opacity:0.3;stroke:#000000;stroke-opacity:0.3;" x="262.042775" xlink:href="#m817935a9e3" y="214.024532"/>
     <use style="fill-opacity:0.3;stroke:#000000;stroke-opacity:0.3;" x="274.17973" xlink:href="#m817935a9e3" y="383.826733"/>
     <use style="fill-opacity:0.3;stroke:#000000;stroke-opacity:0.3;" x="273.683878" xlink:href="#m817935a9e3" y="345.698939"/>
     <use style="fill-opacity:0.3;stroke:#000000;stroke-opacity:0.3;" x="281.632643" xlink:href="#m817935a9e3" y="308.240058"/>
     <use style="fill-opacity:0.3;stroke:#000000;stroke-opacity:0.3;" x="274.172521" xlink:href="#m817935a9e3" y="216.259178"/>
     <use style="fill-opacity:0.3;stroke:#000000;stroke-opacity:0.3;" x="269.489528" xlink:href="#m817935a9e3" y="330.089952"/>
     <use style="fill-opacity:0.3;stroke:#000000;stroke-opacity:0.3;" x="282.903704" xlink:href="#m817935a9e3" y="354.358816"/>
     <use style="fill-opacity:0.3;stroke:#000000;stroke-opacity:0.3;" x="258.380679" xlink:href="#m817935a9e3" y="344.153941"/>
     <use style="fill-opacity:0.3;stroke:#000000;stroke-opacity:0.3;" x="290.349916" xlink:href="#m817935a9e3" y="353.439579"/>
     <use style="fill-opacity:0.3;stroke:#000000;stroke-opacity:0.3;" x="259.208095" xlink:href="#m817935a9e3" y="227.114614"/>
     <use style="fill-opacity:0.3;stroke:#000000;stroke-opacity:0.3;" x="323.722486" xlink:href="#m817935a9e3" y="309.421016"/>
     <use style="fill-opacity:0.3;stroke:#000000;stroke-opacity:0.3;" x="282.915212" xlink:href="#m817935a9e3" y="275.598509"/>
     <use style="fill-opacity:0.3;stroke:#000000;stroke-opacity:0.3;" x="278.574388" xlink:href="#m817935a9e3" y="382.021259"/>
     <use style="fill-opacity:0.3;stroke:#000000;stroke-opacity:0.3;" x="259.356611" xlink:href="#m817935a9e3" y="418.133328"/>
     <use style="fill-opacity:0.3;stroke:#000000;stroke-opacity:0.3;" x="280.637178" xlink:href="#m817935a9e3" y="240.641211"/>
     <use style="fill-opacity:0.3;stroke:#000000;stroke-opacity:0.3;" x="285.045114" xlink:href="#m817935a9e3" y="415.135055"/>
     <use style="fill-opacity:0.3;stroke:#000000;stroke-opacity:0.3;" x="333.500075" xlink:href="#m817935a9e3" y="338.650051"/>
     <use style="fill-opacity:0.3;stroke:#000000;stroke-opacity:0.3;" x="263.644441" xlink:href="#m817935a9e3" y="268.53222"/>
     <use style="fill-opacity:0.3;stroke:#000000;stroke-opacity:0.3;" x="280.63863" xlink:href="#m817935a9e3" y="303.010342"/>
     <use style="fill-opacity:0.3;stroke:#000000;stroke-opacity:0.3;" x="280.020586" xlink:href="#m817935a9e3" y="266.434102"/>
     <use style="fill-opacity:0.3;stroke:#000000;stroke-opacity:0.3;" x="287.595906" xlink:href="#m817935a9e3" y="370.259834"/>
     <use style="fill-opacity:0.3;stroke:#000000;stroke-opacity:0.3;" x="288.319328" xlink:href="#m817935a9e3" y="300.715998"/>
     <use style="fill-opacity:0.3;stroke:#000000;stroke-opacity:0.3;" x="333.31651" xlink:href="#m817935a9e3" y="315.063482"/>
     <use style="fill-opacity:0.3;stroke:#000000;stroke-opacity:0.3;" x="264.360083" xlink:href="#m817935a9e3" y="308.387877"/>
     <use style="fill-opacity:0.3;stroke:#000000;stroke-opacity:0.3;" x="262.252718" xlink:href="#m817935a9e3" y="286.84592"/>
     <use style="fill-opacity:0.3;stroke:#000000;stroke-opacity:0.3;" x="265.525484" xlink:href="#m817935a9e3" y="388.394357"/>
     <use style="fill-opacity:0.3;stroke:#000000;stroke-opacity:0.3;" x="287.988751" xlink:href="#m817935a9e3" y="359.695605"/>
     <use style="fill-opacity:0.3;stroke:#000000;stroke-opacity:0.3;" x="262.824909" xlink:href="#m817935a9e3" y="402.161939"/>
    </g>
   </g>
   <g id="line2d_3">
    <path clip-path="url(#p4b6e02a014)" d="M 231.783866 345.25 
L 231.783866 308.918125 
" style="fill:none;stroke:#000000;stroke-linecap:round;stroke-width:3;"/>
   </g>
   <g id="line2d_4">
    <path clip-path="url(#p4b6e02a014)" d="M 226.222437 345.25 
L 237.345296 345.25 
" style="fill:none;stroke:#000000;stroke-linecap:round;stroke-width:3;"/>
   </g>
   <g id="line2d_5">
    <path clip-path="url(#p4b6e02a014)" d="M 226.222437 308.918125 
L 237.345296 308.918125 
" style="fill:none;stroke:#000000;stroke-linecap:round;stroke-width:3;"/>
   </g>
   <g id="line2d_6">
    <defs>
     <path d="M 0 7.5 
C 1.989023 7.5 3.896849 6.709753 5.303301 5.303301 
C 6.709753 3.896849 7.5 1.989023 7.5 0 
C 7.5 -1.989023 6.709753 -3.896849 5.303301 -5.303301 
C 3.896849 -6.709753 1.989023 -7.5 0 -7.5 
C -1.989023 -7.5 -3.896849 -6.709753 -5.303301 -5.303301 
C -6.709753 -3.896849 -7.5 -1.989023 -7.5 0 
C -7.5 1.989023 -6.709753 3.896849 -5.303301 5.303301 
C -3.896849 6.709753 -1.989023 7.5 0 7.5 
z
" id="m55b8d88855" style="stroke:#000000;"/>
    </defs>
    <g clip-path="url(#p4b6e02a014)">
     <use style="stroke:#000000;" x="231.783866" xlink:href="#m55b8d88855" y="326.797902"/>
    </g>
   </g>
   <g id="line2d_7">
    <path clip-path="url(#p4b6e02a014)" d="M 115.55 345.25 
L 348.017733 345.25 
" style="fill:none;stroke:#000000;stroke-dasharray:7.4,3.2;stroke-dashoffset:0;stroke-width:2;"/>
   </g>
   <g id="patch_6">
    <path d="M 115.55 668.2 
L 115.55 22.3 
" style="fill:none;stroke:#262626;stroke-linecap:square;stroke-linejoin:miter;stroke-width:2;"/>
   </g>
  </g>
 </g>
 <defs>
  <clipPath id="p360e8ff6e6">
   <rect height="407.8" width="943.003199" x="470.817733" y="141.35"/>
  </clipPath>
  <clipPath id="p4b6e02a014">
   <rect height="645.9" width="232.467733" x="115.55" y="22.3"/>
  </clipPath>
 </defs>
</svg>
